<svg width="564" height="400" viewBox="0 0 564 400" fill="none" xmlns="http://www.w3.org/2000/svg">
<g clip-path="url(#clip0)">
<path opacity="0.5" d="M187.793 399.539C215.23 399.539 237.472 395.967 237.472 391.56C237.472 387.153 215.23 383.581 187.793 383.581C160.356 383.581 138.113 387.153 138.113 391.56C138.113 395.967 160.356 399.539 187.793 399.539Z" fill="#267AF9"/>
<path opacity="0.1" d="M457.843 399.763C492.081 399.763 519.836 396.191 519.836 391.784C519.836 387.377 492.081 383.805 457.843 383.805C423.606 383.805 395.851 387.377 395.851 391.784C395.851 396.191 423.606 399.763 457.843 399.763Z" fill="#267AF9"/>
<path opacity="0.1" d="M7.54161 173.116H59.286V243.643H11.3298C11.2023 244.367 11.08 245.096 10.9474 245.825H59.286V302.704C59.1993 302.678 59.1228 302.648 59.0412 302.617C57.6748 302.077 56.3187 301.506 54.9625 300.894L54.0957 300.501C52.7361 299.859 51.3765 299.179 50.017 298.462C49.5428 298.212 49.0686 297.952 48.5996 297.687C41.0517 293.459 34.1949 288.101 28.2669 281.8C28.0935 281.632 27.9304 281.453 27.757 281.29C26.9311 280.393 26.1204 279.485 25.3353 278.557L24.4685 277.538C23.5406 276.401 22.6433 275.233 21.7714 274.05C21.644 273.877 21.5216 273.704 21.3891 273.541C17.8433 268.624 14.8992 263.301 12.6197 257.684C12.5483 257.516 12.4871 257.332 12.4208 257.174C11.7207 255.373 11.1003 253.555 10.5599 251.719C10.3254 250.949 10.101 250.19 9.9073 249.389C9.83593 249.155 9.77474 248.925 9.71866 248.696C6.82273 237.392 6.48113 225.651 6.48113 213.99C6.48113 212.629 6.48113 211.263 6.48113 209.912C6.48113 205.196 6.53722 200.449 6.61879 195.707C6.61879 194.479 6.66977 193.255 6.69527 192.021C6.76665 188.891 6.86862 185.76 7.00118 182.63C7.03177 181.758 7.07255 180.891 7.11844 180.024C7.11844 179.525 7.14393 179.025 7.19492 178.525C7.31728 176.71 7.41925 174.911 7.54161 173.116Z" fill="#267AF9"/>
<path opacity="0.1" d="M59.2854 94.5882H30.9022C35.5161 87.3666 40.5572 80.4271 45.9988 73.8068C50.2152 68.6268 54.6662 63.5793 59.2854 58.7153V94.5882Z" fill="#267AF9"/>
<path opacity="0.1" d="M59.2849 96.7715V170.932H7.70473C7.70473 170.718 7.74042 170.499 7.75572 170.285C7.8016 169.698 7.84749 169.112 7.89847 168.531C7.95455 167.848 8.01573 167.16 8.08201 166.492C8.14829 165.824 8.21967 165.008 8.29614 164.269C8.37262 163.529 8.444 162.78 8.53067 162.041C8.61734 161.301 8.69382 160.562 8.78559 159.828C8.87736 159.094 8.95893 158.35 9.0558 157.615C9.13228 157.004 9.21385 156.397 9.29542 155.785C9.41268 154.923 9.53505 154.057 9.6676 153.2C9.6676 153.073 9.70329 152.94 9.72369 152.818C10.6542 146.548 11.9222 140.332 13.522 134.199C15.1966 127.764 17.335 121.46 19.9204 115.335C22.6682 108.927 25.8856 102.731 29.5461 96.797L59.2849 96.7715Z" fill="#267AF9"/>
<path opacity="0.1" d="M71.6381 173.111V243.643H182.158V173.111H71.6381ZM71.6381 245.82V306.39C72.2703 306.523 72.8974 306.65 73.5194 306.757C74.3658 306.92 75.207 307.068 76.0687 307.196C76.2318 307.221 76.4001 307.247 76.5785 307.262C76.915 307.318 77.2617 307.364 77.5982 307.41C78.4496 307.527 79.296 307.624 80.1474 307.7C80.5502 307.741 80.9581 307.777 81.366 307.807L82.35 307.884C82.8853 307.925 83.4155 307.955 83.9407 307.97C84.267 307.97 84.5933 308.001 84.9298 308.011C85.1847 308.011 85.4396 308.011 85.7048 308.011C85.9699 308.011 86.3472 308.011 86.6684 308.011C87.1068 308.011 87.5453 308.011 87.9787 308.011H88.565C89.0035 308.011 89.4419 308.011 89.8753 307.97H89.9059C90.2067 307.97 90.5126 307.97 90.8185 307.93C90.9034 307.935 90.9885 307.935 91.0734 307.93C91.3284 307.93 91.5833 307.93 91.828 307.894H92.0065L93.7145 307.761C94.2753 307.71 94.8412 307.644 95.4122 307.583L96.5747 307.445C101.304 306.783 105.981 305.788 110.57 304.468C120.879 301.592 130.964 297.57 141.268 294.623C154.59 290.824 169.309 288.958 182.183 293.603V245.82H71.6381ZM182.158 94.5894V0.690886C170.058 0.559793 157.99 1.97503 146.249 4.90222C118.264 11.933 93.1536 27.1825 71.6381 46.6587V94.5843H77.1852V96.7613H71.6381V170.934H182.158V96.7664H99.9601V94.5894H182.158ZM324.114 62.8718C317.19 62.6271 310.308 60.4347 304.082 57.0494C292.177 50.5743 282.669 40.5762 272.044 32.1382C249.967 14.5638 222.588 3.959 194.501 1.3282V94.5894H352.273L352.666 94.1764L324.114 62.8718ZM338.487 60.3226L353.726 77.0456V55.9379C348.623 56.5701 344.151 58.0742 338.507 60.3022L338.487 60.3226ZM353.726 321.43V245.82H321.254C321.167 245.499 321.081 245.173 320.979 244.846C321.076 245.173 321.157 245.499 321.249 245.82H194.521V300.501C195.725 301.393 196.913 302.332 198.09 303.285C199.36 304.305 200.614 305.38 201.873 306.436L203.143 307.486C203.75 307.996 204.361 308.506 204.978 308.985C206.202 309.978 207.437 310.957 208.685 311.922C209.302 312.432 209.934 312.891 210.561 313.37C220.517 320.982 231.019 327.851 241.983 333.922C244.44 335.281 246.92 336.609 249.422 337.904C251.089 338.755 252.766 339.601 254.449 340.422C256.978 341.656 259.527 342.846 262.096 343.991C285.787 354.626 310.838 361.923 336.534 365.675C342.241 366.518 347.97 367.181 353.721 367.663V321.425H354.231L353.726 321.43ZM194.521 96.7664V170.934H353.746V96.7664H194.521ZM194.521 173.111V243.643H353.746V173.111H194.521ZM366.105 55.8461V79.3909L385.556 58.0487C379.111 57.0086 372.628 56.2659 366.105 55.8206V55.8461ZM366.105 173.136V243.643H520.971V173.111L366.105 173.136ZM520.405 327.029L520.951 245.82H366.105V368.474C376.08 368.893 386.071 368.774 396.033 368.117V368.117H396.207C400.965 367.818 405.702 367.383 410.416 366.812H410.523C435.674 363.885 460.267 357.323 483.533 347.331L520.405 327.029ZM550.833 184.725C550.252 183.354 549.645 181.992 549.028 180.646C547.876 178.097 546.657 175.619 545.403 173.141H533.32V243.643H563.87C563.854 223.677 558.802 203.284 550.848 184.7L550.833 184.725ZM533.32 245.846V315.695C541.926 307.445 549.196 298.008 554.432 287.22C560.729 274.229 563.61 260.162 563.844 245.835L533.32 245.846ZM533.32 152.584V170.939H544.271C540.958 164.621 537.307 158.485 533.335 152.559L533.32 152.584ZM428.291 69.6834C427.486 69.3775 426.68 69.0665 425.869 68.7656C417.32 65.6083 408.583 62.9827 399.709 60.9038L369.944 93.5697L369.373 94.1764L369.756 94.5945H475.692C460.938 84.4386 445.032 76.0679 428.306 69.6579L428.291 69.6834ZM478.797 96.7919H368.277L366.105 98.7803V170.934H385.143H385.173H520.992V135.984C508.705 121.125 494.525 107.94 478.812 96.7664L478.797 96.7919Z" fill="#267AF9"/>
<path opacity="0.1" d="M59.286 134.179V170.934H7.70477C7.70477 170.72 7.74045 170.5 7.75575 170.286C7.80164 169.7 7.84752 169.114 7.89851 168.532C7.95459 167.849 8.01577 167.161 8.08205 166.493C8.14833 165.825 8.21971 165.009 8.29619 164.27C8.37266 163.531 8.44404 162.781 8.53072 162.042C8.61739 161.303 8.69387 160.564 8.78564 159.829C8.87741 159.095 8.95899 158.351 9.05586 157.617C9.13234 157.005 9.21391 156.398 9.29548 155.786C9.41275 154.925 9.53511 154.058 9.66767 153.201C9.66767 153.074 9.70336 152.941 9.72376 152.819C10.6543 146.549 11.9223 140.333 13.5221 134.199L59.286 134.179Z" fill="#267AF9"/>
<path opacity="0.1" d="M7.54161 173.116H59.286V243.643H11.3298C11.2023 244.367 11.08 245.096 10.9474 245.825H59.286V302.704C59.1993 302.678 59.1228 302.648 59.0412 302.617C57.6748 302.077 56.3187 301.506 54.9625 300.894L54.0957 300.501C52.7361 299.859 51.3765 299.179 50.017 298.462C49.5428 298.212 49.0686 297.952 48.5996 297.687C41.0517 293.459 34.1949 288.101 28.2669 281.8C28.0935 281.632 27.9304 281.453 27.757 281.29C26.9311 280.393 26.1204 279.485 25.3353 278.557L24.4685 277.538C23.5406 276.401 22.6433 275.233 21.7714 274.05C21.644 273.877 21.5216 273.704 21.3891 273.541C17.8433 268.624 14.8992 263.301 12.6197 257.684C12.5483 257.516 12.4871 257.332 12.4208 257.174C11.7207 255.373 11.1003 253.555 10.5599 251.719C10.3254 250.949 10.101 250.19 9.9073 249.389C9.83593 249.155 9.77474 248.925 9.71866 248.696C6.82273 237.392 6.48113 225.651 6.48113 213.99C6.48113 212.629 6.48113 211.263 6.48113 209.912C6.48113 205.196 6.53722 200.449 6.61879 195.707C6.61879 194.479 6.66977 193.255 6.69527 192.021C6.76665 188.891 6.86862 185.76 7.00118 182.63C7.03177 181.758 7.07255 180.891 7.11844 180.024C7.11844 179.525 7.14393 179.025 7.19492 178.525C7.31728 176.71 7.41925 174.911 7.54161 173.116Z" fill="#267AF9"/>
<path opacity="0.1" d="M110.546 107.387V170.934H71.6396V107.387H77.1867V85.871H99.9565V107.387H110.546Z" fill="#267AF9"/>
<path opacity="0.1" d="M110.545 173.111H71.6447V243.636H110.545V173.111Z" fill="#267AF9"/>
<path opacity="0.1" d="M71.6395 245.825H110.545V304.456C105.956 305.775 101.279 306.768 96.5501 307.429L95.3877 307.571C94.8167 307.638 94.2508 307.694 93.6899 307.75C93.1291 307.806 92.5479 307.847 91.982 307.882H91.8036C91.5588 307.882 91.2937 307.913 91.0541 307.918H90.7941C90.4882 307.918 90.1823 307.949 89.8764 307.959C89.443 307.984 89.0097 307.989 88.5661 307.995C88.3775 307.995 88.199 307.995 88.0104 307.995C87.5719 307.995 87.1386 307.995 86.7001 307.995H85.7365C85.4765 307.995 85.2267 307.995 84.9565 307.995L83.9725 307.959C83.4626 307.959 82.912 307.903 82.3818 307.867L81.4029 307.796L80.1844 307.684C79.3279 307.607 78.4764 307.51 77.6352 307.393L76.6155 307.25L76.1057 307.179C75.2543 307.046 74.413 306.904 73.5565 306.74C72.9294 306.633 72.3074 306.501 71.6752 306.373L71.6395 245.825Z" fill="#267AF9"/>
<path opacity="0.1" d="M353.747 99.8816H321.668V170.927H353.747V99.8816Z" fill="#267AF9"/>
<path opacity="0.1" d="M353.753 173.111V243.643H194.523V213.221H279.336V231.167H321.668V173.111H353.753Z" fill="#267AF9"/>
<path opacity="0.1" d="M354.258 321.446H353.748V367.714C348.004 367.228 342.276 366.567 336.566 365.731C310.858 361.967 285.796 354.654 262.098 344.001C255.256 340.922 248.553 337.56 241.99 333.917C231.026 327.843 220.522 320.974 210.563 313.365C208.061 311.448 205.592 309.486 203.155 307.481C201.467 306.089 199.79 304.662 198.092 303.275C196.914 302.321 195.726 301.383 194.523 300.486V245.825H321.245C321.159 245.499 321.072 245.173 320.98 244.851C321.077 245.173 321.169 245.499 321.255 245.825H353.748V321.415C353.921 321.42 354.09 321.436 354.258 321.446Z" fill="#267AF9"/>
<path opacity="0.1" d="M437.413 94.588H416.51V88.0929H425.881V68.7452C426.693 69.0409 427.502 69.3451 428.307 69.6578V88.0929H437.413V94.588Z" fill="#267AF9"/>
<path opacity="0.1" d="M487.777 170.934H385.155C385.155 170.934 385.155 170.934 385.19 170.959L385.144 170.934H366.107V99.8867H371.501V152.401H396.152V121.3H416.515V96.7715H437.419V121.321H457.782V152.421H487.777V170.934Z" fill="#267AF9"/>
<path opacity="0.1" d="M366.107 173.111V243.643H487.777V173.111H366.107ZM520.804 326.667L520.973 270.838H487.777V245.856H366.107V368.474C376.082 368.893 386.072 368.774 396.035 368.117V368.117H396.208C400.967 367.818 405.703 367.383 410.417 366.812H410.525C435.676 363.885 460.269 357.323 483.535 347.331" fill="#267AF9"/>
<path opacity="0.1" d="M535.483 245.825H563.865C563.616 260.147 560.74 274.213 554.449 287.204C549.213 297.997 541.937 307.434 533.342 315.678V270.812H535.483V245.825Z" fill="#267AF9"/>
<path opacity="0.1" d="M563.881 243.642H535.483V184.7H550.849C558.803 203.283 563.855 223.677 563.881 243.642Z" fill="#267AF9"/>
<path opacity="0.1" d="M353.752 119.633H336.566V141.907H353.752V119.633Z" fill="#267AF9"/>
<path opacity="0.1" d="M353.752 165.805H336.566V170.934H353.752V165.805Z" fill="#267AF9"/>
<path opacity="0.1" d="M353.752 173.111H336.566V188.074H353.752V173.111Z" fill="#267AF9"/>
<path opacity="0.1" d="M353.752 211.977H336.566V234.251H353.752V211.977Z" fill="#267AF9"/>
<path opacity="0.1" d="M353.752 258.148H336.566V280.422H353.752V258.148Z" fill="#267AF9"/>
<path opacity="0.1" d="M353.747 321.414C353.92 321.414 354.089 321.414 354.257 321.445H353.747V326.619H336.566V304.32H353.747V321.414Z" fill="#267AF9"/>
<path opacity="0.1" d="M353.747 350.482V367.688C348.003 367.202 342.276 366.541 336.566 365.705V350.482H353.747Z" fill="#267AF9"/>
<path opacity="0.1" d="M268.179 242.006H194.523V243.643H268.179V242.006Z" fill="#267AF9"/>
<path opacity="0.1" d="M268.179 245.82H194.523V252.091H268.179V245.82Z" fill="#267AF9"/>
<path opacity="0.1" d="M268.179 272.648H194.523V282.733H268.179V272.648Z" fill="#267AF9"/>
<path opacity="0.1" d="M268.174 303.29V313.375H210.562C208.061 311.464 205.59 309.503 203.149 307.491C201.462 306.099 199.79 304.672 198.087 303.29H268.174Z" fill="#267AF9"/>
<path opacity="0.1" d="M268.174 333.927V344.001H262.092C255.257 340.918 248.556 337.555 241.99 333.911L268.174 333.927Z" fill="#267AF9"/>
<path opacity="0.1" d="M410.539 179.948H396.04V194.447H410.539V179.948Z" fill="#267AF9"/>
<path opacity="0.1" d="M96.5857 112.388H82.0864V126.887H96.5857V112.388Z" fill="#267AF9"/>
<path opacity="0.1" d="M96.5856 146.069H82.0863V160.568H96.5856V146.069Z" fill="#267AF9"/>
<path opacity="0.1" d="M96.5856 179.749H82.0864V194.248H96.5856V179.749Z" fill="#267AF9"/>
<path opacity="0.1" d="M96.5856 213.424H82.0863V227.924H96.5856V213.424Z" fill="#267AF9"/>
<path opacity="0.1" d="M96.5856 247.105H82.0863V261.604H96.5856V247.105Z" fill="#267AF9"/>
<path opacity="0.1" d="M96.5856 280.785H82.0863V295.285H96.5856V280.785Z" fill="#267AF9"/>
<path opacity="0.1" d="M465.893 179.948H451.394V194.447H465.893V179.948Z" fill="#267AF9"/>
<path opacity="0.1" d="M410.539 215.714H396.04V230.213H410.539V215.714Z" fill="#267AF9"/>
<path opacity="0.1" d="M465.893 215.714H451.394V230.213H465.893V215.714Z" fill="#267AF9"/>
<path opacity="0.1" d="M410.539 251.474H396.04V265.974H410.539V251.474Z" fill="#267AF9"/>
<path opacity="0.1" d="M465.893 251.474H451.394V265.974H465.893V251.474Z" fill="#267AF9"/>
<path opacity="0.1" d="M410.539 287.24H396.04V301.739H410.539V287.24Z" fill="#267AF9"/>
<path opacity="0.1" d="M465.893 287.24H451.394V301.739H465.893V287.24Z" fill="#267AF9"/>
<path opacity="0.1" d="M410.539 323.006H396.04V337.505H410.539V323.006Z" fill="#267AF9"/>
<path opacity="0.1" d="M465.893 323.006H451.394V337.505H465.893V323.006Z" fill="#267AF9"/>
<path opacity="0.1" d="M396.04 368.117V358.767H410.534V366.786L396.04 368.117Z" fill="#267AF9"/>
<path opacity="0.1" d="M9.66256 152.809V161.104H59.286V152.809H9.66256ZM14.6081 160.584H10.5599V153.319H14.6387L14.6081 160.584ZM19.5485 160.584H15.4697V153.319H19.5485V160.584ZM24.4787 160.584H20.3999V153.319H24.4787V160.584ZM29.4191 160.584H25.3455V153.319H29.4242L29.4191 160.584ZM34.3544 160.584H30.2757V153.319H34.3544V160.584ZM39.2949 160.584H35.2161V153.319H39.2949V160.584ZM44.2353 160.584H40.1565V153.319H44.2353V160.584ZM49.1706 160.584H45.0918V153.319H49.1706V160.584ZM54.1059 160.584H50.0271V153.319H54.1059V160.584ZM59.0412 160.584H54.9625V153.319H59.0412V160.584Z" fill="#267AF9"/>
<path opacity="0.1" d="M9.66257 176.945V185.24H59.286V176.945H9.66257ZM14.6081 184.715H10.5599V177.47H14.6387L14.6081 184.715ZM19.5485 184.715H15.4697V177.47H19.5485V184.715ZM24.4787 184.715H20.3999V177.47H24.4787V184.715ZM29.4191 184.715H25.3455V177.47H29.4242L29.4191 184.715ZM34.3545 184.715H30.2757V177.47H34.3545V184.715ZM39.2949 184.715H35.2161V177.47H39.2949V184.715ZM44.2353 184.715H40.1565V177.47H44.2353V184.715ZM49.1706 184.715H45.0918V177.47H49.1706V184.715ZM54.1059 184.715H50.0271V177.47H54.1059V184.715ZM59.0412 184.715H54.9625V177.47H59.0412V184.715Z" fill="#267AF9"/>
<path opacity="0.1" d="M9.66264 201.091V209.402H59.286V201.091H9.66264ZM14.6082 208.861H10.56V201.611H14.6387L14.6082 208.861ZM19.5486 208.861H15.4698V201.611H19.5486V208.861ZM24.4788 208.861H20.4V201.611H24.4788V208.861ZM29.4192 208.861H25.3455V201.611H29.4243L29.4192 208.861ZM34.3545 208.861H30.2757V201.611H34.3545V208.861ZM39.2949 208.861H35.2162V201.611H39.2949V208.861ZM44.2353 208.861H40.1566V201.611H44.2353V208.861ZM49.1707 208.861H45.0919V201.611H49.1707V208.861ZM54.106 208.861H50.0272V201.611H54.106V208.861ZM59.0413 208.861H54.9625V201.611H59.0413V208.861Z" fill="#267AF9"/>
<path opacity="0.1" d="M9.6626 225.238V233.523H59.286V225.238H9.6626ZM14.6081 233.008H10.5599V225.753H14.6387L14.6081 233.008ZM19.5485 233.008H15.4698V225.753H19.5485V233.008ZM24.4788 233.008H20.4V225.753H24.4788V233.008ZM29.4192 233.008H25.3455V225.753H29.4243L29.4192 233.008ZM34.3545 233.008H30.2757V225.753H34.3545V233.008ZM39.2949 233.008H35.2161V225.753H39.2949V233.008ZM44.2353 233.008H40.1565V225.753H44.2353V233.008ZM49.1706 233.008H45.0919V225.753H49.1706V233.008ZM54.106 233.008H50.0272V225.753H54.106V233.008ZM59.0413 233.008H54.9625V225.753H59.0413V233.008Z" fill="#267AF9"/>
<path opacity="0.1" d="M9.8767 249.379C10.0755 250.159 10.2999 250.939 10.5344 251.709V249.899H14.6132V257.149H12.431C12.4973 257.317 12.5636 257.501 12.6299 257.659H59.286V249.379H9.8767ZM19.5638 257.149H15.485V249.899H19.5638V257.149ZM24.494 257.149H20.4152V249.899H24.494V257.149ZM29.4344 257.149H25.3455V249.899H29.4242L29.4344 257.149ZM34.3697 257.149H30.291V249.899H34.3697V257.149ZM39.3102 257.149H35.2314V249.899H39.3102V257.149ZM44.2506 257.149H40.1718V249.899H44.2506V257.149ZM49.1859 257.149H45.1071V249.899H49.1859V257.149ZM54.1212 257.149H50.0424V249.899H54.1212V257.149ZM59.0565 257.149H54.9777V249.899H59.0565V257.149Z" fill="#267AF9"/>
<path opacity="0.1" d="M21.3993 273.525C21.5267 273.688 21.6491 273.872 21.7816 274.035H24.4787V277.517C24.7693 277.864 25.0549 278.211 25.3506 278.537V274.015H29.4293V281.29H27.7774C27.9406 281.458 28.0986 281.637 28.2873 281.8H59.3013V273.525H21.3993ZM34.3545 281.29H30.2757V274.045H34.3545V281.29ZM39.2949 281.29H35.2161V274.045H39.2949V281.29ZM44.2353 281.29H40.1565V274.045H44.2353V281.29ZM49.1706 281.29H45.0918V274.045H49.1706V281.29ZM54.1059 281.29H50.0272V274.045H54.1059V281.29ZM59.0412 281.29H54.9625V274.045H59.0412V281.29Z" fill="#267AF9"/>
<path opacity="0.1" d="M48.62 297.666C49.0839 297.932 49.5581 298.176 50.0373 298.441V298.186H54.1159V300.481L54.9826 300.883V298.186H59.0611V302.596C59.1393 302.635 59.2213 302.666 59.3058 302.688V297.666H48.62Z" fill="#267AF9"/>
<path opacity="0.1" d="M385.155 170.934H385.185H385.155ZM353.748 321.41H354.258H353.748ZM320.98 244.846C321.077 245.173 321.159 245.499 321.25 245.82C321.169 245.499 321.082 245.173 320.98 244.846ZM385.155 170.919H385.185H385.155ZM77.2071 94.5741V96.7511H99.9819V94.5741H77.2071ZM353.748 321.41H354.258H353.748ZM320.98 244.846C321.077 245.173 321.159 245.499 321.25 245.82C321.169 245.499 321.082 245.173 320.98 244.846ZM385.155 170.919H385.185H385.155ZM353.748 321.395H354.258H353.748ZM320.98 244.846C321.077 245.173 321.159 245.499 321.25 245.82C321.169 245.499 321.082 245.173 320.98 244.846Z" fill="#267AF9"/>
<path d="M235.831 194.259C235.831 194.259 233.822 193.979 233.822 191.052C233.822 188.126 232.384 182.66 232.384 182.66C232.384 182.635 231.14 173.141 229.422 171.632C227.704 170.123 225.496 161.262 225.496 161.262C225.496 161.262 225.119 156.454 224.349 155.419C223.579 154.384 222.539 151.85 221.004 148.235C219.47 144.621 213.071 142.117 213.071 142.117C213.071 142.117 201.503 135.408 198.224 133.22C197.926 133.041 197.648 132.831 197.393 132.593C196.822 131.844 194.334 131.829 194.334 131.829C194.074 130.187 193.824 128.3 193.743 126.592C193.743 126.409 193.743 126.225 193.717 126.042C197.373 123.881 200.126 120.474 201.472 116.446C201.533 116.253 201.584 116.049 201.64 115.855C201.859 115.783 202.061 115.666 202.232 115.511C202.403 115.357 202.54 115.168 202.634 114.958C202.93 114.3 202.935 113.53 203.302 112.918C203.731 112.194 204.546 111.807 205.189 111.261C206.81 109.885 207.228 107.565 207.152 105.454C207.101 103.746 206.825 102.023 206.933 100.325L206.963 99.8969C206.994 99.6419 207.029 99.387 207.075 99.1423C207.325 97.8779 207.871 96.6848 208.177 95.4306C208.482 94.1764 208.513 92.7641 207.799 91.6832C206.754 90.0976 204.577 89.7815 202.665 89.6184C200.498 89.4348 198.561 89.6744 197.174 87.8747C196.525 86.934 195.795 86.052 194.992 85.2388C194.706 84.9737 191.933 83.281 191.933 83.1688C189.226 81.915 186.157 81.6797 183.291 82.506C181.853 82.9241 180.497 83.6073 179.039 83.9489C175.893 84.6932 172.273 83.8877 169.602 85.6874C168.113 86.7071 167.221 88.3284 166.384 89.909C165.705 91.2108 165.015 92.5109 164.314 93.8093C163.188 95.9456 162.04 98.1175 161.566 100.483C161.467 100.998 161.405 101.519 161.383 102.043V102.069C161.383 102.257 161.383 102.446 161.383 102.635V102.874C161.383 103.053 161.383 103.226 161.413 103.384C161.444 103.542 161.439 103.593 161.454 103.7C161.469 103.807 161.495 104.047 161.526 104.21C161.556 104.373 161.617 104.659 161.678 104.883C161.704 104.98 161.74 105.072 161.77 105.164C161.821 105.337 161.882 105.505 161.949 105.673C161.984 105.76 162.02 105.852 162.061 105.939C162.137 106.117 162.229 106.29 162.321 106.448C162.362 106.52 162.392 106.586 162.433 106.652C162.575 106.889 162.732 107.118 162.902 107.336C163.993 108.697 165.599 109.564 166.787 110.838C166.787 110.889 166.787 110.94 166.787 110.986C166.787 111.129 166.787 111.266 166.787 111.409C166.85 114.252 167.607 117.036 168.991 119.52C170.376 122.003 172.346 124.111 174.731 125.659C174.731 125.853 174.756 126.052 174.766 126.246C174.866 127.759 174.847 129.278 174.71 130.788C174.503 130.544 174.243 130.349 173.95 130.219C173.657 130.088 173.338 130.025 173.017 130.034C172.798 130.023 172.579 130.042 172.365 130.09L172.319 130.054V130.1C171.197 130.376 169.816 131.543 168.495 134.862C168.495 134.862 164.478 139.39 161.418 139.201C158.359 139.012 150.615 143.912 150.615 143.912C150.615 143.912 143.059 148.817 141.438 153.813C140.531 156.646 139.445 159.419 138.185 162.113L128.844 181.36L127.121 196.63C127.121 196.63 128.074 203.421 127.886 204.456C127.697 205.491 131.807 214.827 131.807 214.827C131.807 214.827 145.384 238.682 150.931 239.906L151.329 239.626C151.566 239.749 151.818 239.844 152.078 239.906L153.22 239.1C153.289 239.998 153.26 240.901 153.133 241.792C152.369 244.148 153.419 259.52 154.755 262.533C156.091 265.546 155.616 305.054 155.616 305.054L155.428 308.542C155.428 308.542 155.428 308.654 155.474 308.847L155.428 309.673L155.565 309.745C155.708 310.851 155.662 311.973 155.428 313.064C154.949 314.593 154.755 318.917 154.755 318.917C154.755 318.917 150.936 343.328 152.746 348.233C154.556 353.138 156.096 358.512 156.096 358.512C156.096 358.512 158.008 364.63 156.187 365.675C154.367 366.72 149.192 368.474 150.258 371.023C151.227 373.379 154.903 379.691 155.448 380.613L155.402 381.098L154.653 389.22C154.774 390.292 155.065 391.338 155.514 392.32C156.335 394.089 157.931 395.924 160.965 395.725C161.475 395.69 162.066 395.628 162.637 395.552C168.189 394.808 175.026 392.33 175.026 392.33C174.671 392.104 174.346 391.835 174.058 391.529V391.529C173.785 391.265 173.568 390.948 173.422 390.597C173.276 390.247 173.202 389.87 173.206 389.49C173.288 388.011 170.519 380.965 169.831 379.232C169.724 378.982 169.668 378.839 169.668 378.839C169.668 378.839 175.98 372.242 174.929 366.394C174.929 366.394 167.945 362.315 170.244 360.077C172.543 357.839 176.653 351.409 176.653 351.409C176.653 351.409 176.841 327.37 176.653 323.781C176.456 321.29 176.574 318.783 177.004 316.322C177.081 315.95 177.173 315.588 177.27 315.231C180.45 315.705 183.66 315.949 186.875 315.96C188.048 315.96 189.241 315.96 190.444 315.888C190.444 316.228 190.459 316.595 190.49 316.99C190.755 322.945 191.25 333.386 191.652 337.266C192.223 342.829 195.379 357.818 195.379 357.818C195.379 357.818 189.358 361.683 196.43 371.207C196.43 371.207 196.43 374.658 195.961 375.158C195.46 376.791 195.056 378.453 194.752 380.134C194.457 381.929 194.334 383.744 194.813 384.687C195.961 386.941 202.844 386.757 202.844 386.757L203.012 386.727C204.311 386.592 205.624 386.717 206.875 387.095C208.126 387.472 209.289 388.094 210.297 388.924C212.913 391.025 222.84 390.102 228.214 389.434C230.319 389.169 231.726 388.924 231.726 388.924C231.795 388.686 231.819 388.437 231.798 388.19C231.742 386.869 230.707 383.973 223.691 381.388C223.691 381.388 217.094 376.953 217.186 373.088H217.048H216.283C216.839 373.058 217.196 373.088 217.196 373.088C217.196 373.088 214.611 363.656 215.666 362.891C216.722 362.126 213.561 351.675 213.561 351.675C213.561 351.675 211.751 334.136 211.654 332.907C211.658 331.853 211.818 330.805 212.128 329.797L211.654 320.181C211.654 320.181 211.562 316.985 211.654 315.944C211.638 315.042 211.565 314.141 211.434 313.247C211.389 312.891 211.343 312.518 211.292 312.151C213.764 311.524 215.37 310.943 215.37 310.943L215.085 277.471C217.186 273.393 217.573 264.445 217.563 258.097C217.563 254.018 217.379 251 217.379 251L220.25 246.315C220.25 246.315 220.912 240.706 219.862 239.478C219.398 238.922 219.607 238.346 219.99 237.872C220.188 237.714 220.398 237.571 220.617 237.443C220.617 237.443 220.586 237.397 220.551 237.331C220.751 237.164 220.964 237.012 221.188 236.877C221.188 236.877 220.168 235.297 221.081 234.629C221.937 235.21 222.702 235.649 223.283 236.006C223.243 236.378 223.202 236.592 223.202 236.592L223.446 236.082C224.007 236.398 224.349 236.592 224.349 236.592C224.349 236.592 228.846 227.634 228.749 226.313C228.652 224.993 231.808 219.43 231.808 219.43C231.808 219.43 232.19 216.509 233.914 215.285C235.637 214.062 235.249 205.196 235.249 205.196C235.249 205.196 235.729 200.576 236.876 198.69C238.023 196.803 235.831 194.259 235.831 194.259ZM149.789 190.328L149.876 192.465C149.366 191.644 148.999 191.052 148.999 191.052L149.789 190.328Z" fill="url(#paint0_linear)"/>
<path d="M224.593 232.721L223.492 237.412C223.492 237.412 214.672 232.91 213.081 227.19C211.491 221.47 215.742 219.298 215.742 219.298L223.961 222.78L224.593 232.721Z" fill="white"/>
<path opacity="0.1" d="M224.593 232.721L223.492 237.412C223.492 237.412 214.672 232.91 213.081 227.19C211.491 221.47 215.742 219.298 215.742 219.298L223.961 222.78L224.593 232.721Z" fill="black"/>
<path d="M175.092 392.359C175.092 392.359 166.934 395.357 161.326 395.734C158.349 395.933 156.784 394.108 155.978 392.349C155.538 391.371 155.254 390.331 155.137 389.265L155.866 381.184L156.254 376.881L168.168 373.787L169.856 378.946L170.014 379.339C170.692 381.062 173.409 388.072 173.328 389.535C173.324 389.91 173.397 390.281 173.54 390.627C173.684 390.973 173.896 391.287 174.164 391.549C174.437 391.857 174.749 392.13 175.092 392.359V392.359Z" fill="#F8EEEE"/>
<path d="M230.814 388.251C230.834 388.496 230.81 388.743 230.742 388.98C230.742 388.98 213.295 391.891 209.727 388.98C208.72 388.13 207.547 387.499 206.283 387.128C205.019 386.758 203.691 386.656 202.385 386.828C202.385 386.828 195.634 387.012 194.508 384.789C194.038 383.856 194.161 382.046 194.451 380.262C194.748 378.59 195.143 376.937 195.634 375.311L195.905 375.097L197.511 373.807L216.314 373.251H216.456C216.365 377.095 222.84 381.506 222.84 381.506C229.718 384.055 230.732 386.936 230.814 388.251Z" fill="#F8EEEE"/>
<path opacity="0.1" d="M230.814 388.251C230.832 388.497 230.806 388.743 230.737 388.98C230.737 388.98 213.295 391.891 209.726 388.98C208.721 388.13 207.549 387.5 206.285 387.129C205.022 386.759 203.695 386.656 202.39 386.828C202.39 386.828 195.634 387.012 194.513 384.789C194.044 383.851 194.161 382.046 194.451 380.262C197.052 380.522 201.156 381.169 202.767 382.714C205.204 385.064 209.334 387.41 211.868 387.593C213.851 387.721 225.715 388.098 230.814 388.251Z" fill="black"/>
<path opacity="0.1" d="M175.092 392.36C175.092 392.36 166.934 395.358 161.326 395.735C158.349 395.934 156.784 394.109 155.984 392.345C158.058 393.043 160.939 393.778 162.453 393.105C164.248 392.309 170.61 391.794 174.179 391.575C174.451 391.873 174.757 392.136 175.092 392.36V392.36Z" fill="black"/>
<path d="M187.196 150.768C180.466 148.152 171.809 139.511 173.971 135.473C174.451 134.454 174.736 133.355 174.812 132.231C174.951 130.705 174.972 129.171 174.873 127.642C174.722 125.139 174.42 122.646 173.971 120.179C173.971 120.179 194.981 120.653 193.757 123.747C193.4 124.655 193.344 126.23 193.441 127.994C193.538 129.758 193.793 131.752 194.058 133.439C194.425 135.754 194.792 137.518 194.792 137.518C194.792 137.518 193.507 139.317 192.753 139.414C191.998 139.511 196.852 154.495 187.196 150.768Z" fill="#CF6F80"/>
<path opacity="0.1" d="M169.998 379.338L169.84 379.512C163.559 371.916 155.963 381.383 155.963 381.383L155.851 381.184L156.238 376.881L168.153 373.787L169.84 378.946L169.998 379.338Z" fill="black"/>
<path opacity="0.1" d="M216.46 373.787C216.46 373.787 211.872 373.69 209.425 375.851C206.978 378.013 195.15 376.32 195.66 375.851C195.811 375.619 195.902 375.353 195.925 375.076L197.531 373.787L216.333 373.231C216.404 373.572 216.46 373.787 216.46 373.787Z" fill="black"/>
<path d="M177.815 314.129C177.473 314.974 177.213 315.85 177.04 316.745C176.614 319.195 176.496 321.688 176.688 324.168C176.877 327.737 176.688 351.653 176.688 351.653C176.688 351.653 172.655 358.031 170.407 360.28C168.158 362.528 174.995 366.566 174.995 366.566C176.015 372.378 169.836 378.945 169.836 378.945C163.554 371.348 155.958 380.821 155.958 380.821C155.958 380.821 151.828 373.683 150.798 371.134C149.769 368.585 154.831 366.821 156.611 365.786C158.39 364.751 156.524 358.648 156.524 358.648C156.524 358.648 155.02 353.3 153.235 348.421C151.451 343.542 155.203 319.253 155.203 319.253C155.203 319.253 155.397 314.94 155.861 313.436C156.095 312.35 156.142 311.233 155.999 310.132C155.968 309.76 155.932 309.449 155.907 309.24C155.881 309.031 155.861 308.934 155.861 308.934L155.932 308.812L158.482 304.06C158.482 304.06 179.038 311.136 177.815 314.129Z" fill="#267AF9"/>
<path d="M216.461 373.224C216.461 373.224 211.872 373.128 209.425 375.264C206.978 377.4 195.15 375.733 195.66 375.264C196.17 374.795 196.129 371.323 196.129 371.323C189.19 361.85 195.109 358.006 195.109 358.006C195.109 358.006 192.009 343.093 191.448 337.561C191.056 333.697 190.572 323.311 190.312 317.382C190.199 314.833 190.133 313.079 190.133 313.079L195.802 311.937L196.532 311.789L210.205 309.046C210.205 309.046 210.583 311.595 210.837 313.681C210.965 314.571 211.036 315.468 211.052 316.367C210.96 317.387 211.052 320.579 211.052 320.579L211.516 330.148C211.212 331.152 211.056 332.195 211.052 333.243C211.143 334.462 212.923 351.908 212.923 351.908C212.923 351.908 216.017 362.319 214.962 363.069C213.907 363.818 216.461 373.224 216.461 373.224Z" fill="#267AF9"/>
<path opacity="0.1" d="M193.757 123.747C193.4 124.655 193.344 126.23 193.441 127.994C190.627 129.689 187.392 130.555 184.107 130.494C180.823 130.433 177.622 129.446 174.873 127.647C174.722 125.142 174.421 122.648 173.971 120.179C173.971 120.179 194.981 120.643 193.757 123.747Z" fill="black"/>
<path d="M201.88 112.48C201.884 114.317 201.595 116.143 201.023 117.889C199.746 121.802 197.127 125.137 193.628 127.305C190.13 129.472 185.978 130.334 181.906 129.737C177.834 129.139 174.104 127.122 171.376 124.04C168.647 120.959 167.096 117.012 166.996 112.898C166.996 112.755 166.996 112.623 166.996 112.48C166.957 110.164 167.379 107.863 168.237 105.712C169.096 103.561 170.375 101.602 171.999 99.9507C173.623 98.2989 175.559 96.987 177.695 96.0915C179.831 95.1959 182.124 94.7347 184.441 94.7347C186.757 94.7347 189.05 95.1959 191.186 96.0915C193.322 96.987 195.259 98.2989 196.882 99.9507C198.506 101.602 199.785 103.561 200.644 105.712C201.503 107.863 201.925 110.164 201.885 112.48H201.88Z" fill="#CF6F80"/>
<path opacity="0.1" d="M187.196 150.768C180.466 148.153 171.809 139.512 173.971 135.474C174.451 134.455 174.736 133.355 174.812 132.231L184.025 139.802L189.724 144.477L194.058 133.445C194.425 135.759 194.792 137.523 194.792 137.523C194.792 137.523 193.507 139.323 192.753 139.42C191.998 139.517 196.852 154.495 187.196 150.768Z" fill="black"/>
<path d="M211.021 184.231L203.328 313.477L193.294 314.134L167.312 239.192L171.575 150.219L172.472 131.421L184.025 140.909L189.73 145.584L194.191 134.23L202.487 141.46L211.021 184.231Z" fill="#267AF9"/>
<path opacity="0.1" d="M177.814 314.129C177.472 314.974 177.213 315.85 177.039 316.744C169.738 315.617 162.648 313.402 156.004 310.173L155.866 310.101L155.912 309.281L155.938 308.852L158.487 304.101C158.487 304.101 179.038 311.136 177.814 314.129Z" fill="black"/>
<path opacity="0.1" d="M195.92 316.765C194.053 317.082 192.171 317.297 190.281 317.407C190.169 314.858 190.102 313.105 190.102 313.105L195.772 311.963L195.92 316.765Z" fill="black"/>
<path opacity="0.1" d="M210.807 313.706C207.182 314.649 201.584 315.71 196.572 315.047L196.501 311.815L210.174 309.072C210.174 309.072 210.552 311.595 210.807 313.706Z" fill="black"/>
<path opacity="0.1" d="M196.481 315.639C175.577 319.207 156.432 308.975 156.432 308.975L156.616 305.508C156.616 305.508 157.09 266.204 155.775 263.191C154.459 260.177 153.434 244.897 154.179 242.552C154.923 240.207 151.461 205.037 151.461 205.037L150.9 190.762L130.374 182.446L139.551 163.317C140.791 160.635 141.857 157.876 142.743 155.057C144.339 150.091 151.747 145.212 151.747 145.212C151.747 145.212 159.343 140.338 162.346 140.521C165.349 140.705 169.285 136.208 169.285 136.208C172.192 128.8 174.822 132.155 174.822 132.155C174.822 132.507 174.822 132.155 174.68 133.251C173.66 141.383 191.168 167.079 191.418 167.533L193.085 208.148L194.773 259.545L196.481 315.639Z" fill="black"/>
<path d="M195.92 315.639C175.016 319.207 155.866 308.975 155.866 308.975L156.055 305.508C156.055 305.508 156.529 266.204 155.209 263.191C153.888 260.177 152.868 244.897 153.618 242.552C154.367 240.207 150.9 205.037 150.9 205.037L150.334 190.762L129.798 182.416L138.975 163.286C140.212 160.603 141.278 157.844 142.167 155.027C143.757 150.061 151.171 145.181 151.171 145.181C151.171 145.181 158.767 140.307 161.765 140.491C164.763 140.674 168.704 136.178 168.704 136.178C171.615 128.77 174.822 132.124 174.822 132.124C174.822 132.476 174.516 132.634 174.68 133.22C176.923 141.108 190.607 167.049 190.857 167.503L192.545 208.117L194.232 259.515L195.92 315.639Z" fill="white"/>
<path opacity="0.1" d="M190.286 168.66C188.038 167.722 176.128 154.124 176.128 154.124V151.029C175.694 150.01 173.119 150.632 171.029 151.346L171.926 132.547L172.946 133.394C175.179 141.276 190.026 168.206 190.286 168.66Z" fill="black"/>
<path d="M190.852 167.533C188.598 166.595 176.688 152.997 176.688 152.997V149.903C176.255 148.883 173.68 149.505 171.59 150.219L172.492 131.421L173.512 132.267C175.75 140.149 190.602 167.084 190.852 167.533Z" fill="white"/>
<path opacity="0.1" d="M156.432 235.348C156.713 235.348 170.967 233.849 170.967 233.849C170.967 233.849 179.598 250.821 179.032 254.95C178.467 259.08 177.442 262.735 173.97 262.088C170.498 261.44 155.285 262.598 155.285 262.598L156.432 235.348Z" fill="black"/>
<path d="M155.866 234.221C156.147 234.221 170.401 232.722 170.401 232.722C170.401 232.722 179.027 249.699 178.467 253.824C177.906 257.948 176.871 261.609 173.404 260.961C169.937 260.314 154.719 261.471 154.719 261.471L155.866 234.221Z" fill="white"/>
<path d="M166.608 226.252C166.608 226.252 179.69 233.283 179.971 235.429C180.251 237.575 173.312 234.491 171.814 234.119C170.827 233.881 169.823 233.724 168.811 233.65L158.813 233.92L166.608 226.252Z" fill="#CF6F80"/>
<path opacity="0.1" d="M186.635 169.537C187.396 169.537 188.012 168.92 188.012 168.16C188.012 167.4 187.396 166.784 186.635 166.784C185.875 166.784 185.259 167.4 185.259 168.16C185.259 168.92 185.875 169.537 186.635 169.537Z" fill="black"/>
<path d="M186.635 168.976C187.396 168.976 188.012 168.36 188.012 167.599C188.012 166.839 187.396 166.223 186.635 166.223C185.875 166.223 185.259 166.839 185.259 167.599C185.259 168.36 185.875 168.976 186.635 168.976Z" fill="#3F3D56"/>
<path opacity="0.1" d="M189.169 229.128C189.93 229.128 190.546 228.511 190.546 227.751C190.546 226.991 189.93 226.375 189.169 226.375C188.409 226.375 187.793 226.991 187.793 227.751C187.793 228.511 188.409 229.128 189.169 229.128Z" fill="black"/>
<path d="M189.169 228.562C189.93 228.562 190.546 227.945 190.546 227.185C190.546 226.425 189.93 225.809 189.169 225.809C188.409 225.809 187.793 226.425 187.793 227.185C187.793 227.945 188.409 228.562 189.169 228.562Z" fill="#3F3D56"/>
<path opacity="0.1" d="M188.007 199.332C188.767 199.332 189.383 198.716 189.383 197.956C189.383 197.195 188.767 196.579 188.007 196.579C187.247 196.579 186.63 197.195 186.63 197.956C186.63 198.716 187.247 199.332 188.007 199.332Z" fill="black"/>
<path d="M188.007 198.771C188.767 198.771 189.383 198.155 189.383 197.395C189.383 196.635 188.767 196.018 188.007 196.018C187.247 196.018 186.63 196.635 186.63 197.395C186.63 198.155 187.247 198.771 188.007 198.771Z" fill="#3F3D56"/>
<path d="M219.74 233.365C219.74 233.365 220.678 234.772 219.74 235.429C218.802 236.087 219.832 237.678 219.832 237.678C219.832 237.678 217.491 239.049 218.521 240.283C219.551 241.517 218.899 247.09 218.899 247.09L216.084 251.75C216.084 251.75 216.253 254.753 216.263 258.811C216.263 265.143 215.891 274.045 213.831 278.104L214.116 311.402C214.116 311.402 204.261 315.001 196.012 313.905L194.788 260.473C194.788 260.473 196.572 230.173 197.23 224.361C197.615 221.343 197.772 218.301 197.699 215.26C197.699 215.26 197.419 206.164 196.476 201.943C196.476 201.943 195.456 183.655 195.354 178.592C195.308 176.17 195.436 169.103 195.578 162.384C195.736 155.037 195.915 148.108 195.915 148.108L194.054 133.384C194.054 133.384 195.915 133.195 196.476 133.944C196.727 134.179 197 134.389 197.291 134.572V134.572C200.503 136.744 211.853 143.422 211.853 143.422C211.853 143.422 218.134 145.921 219.638 149.5C221.142 153.079 222.187 155.618 222.916 156.638C223.645 157.657 224.043 162.45 224.043 162.45C224.043 162.45 226.205 171.27 227.892 172.764C229.58 174.258 230.814 183.762 230.814 183.762L215.901 195.488C215.901 195.488 214.59 214.995 214.31 215.749C214.03 216.504 219.74 233.365 219.74 233.365Z" fill="white"/>
<path d="M220.306 233.365C220.306 233.365 221.239 234.772 220.306 235.429C219.373 236.087 220.392 237.678 220.392 237.678C220.392 237.678 218.068 239.065 219.087 240.298C220.107 241.532 219.465 247.105 219.465 247.105L216.65 251.765C216.65 251.765 216.818 254.768 216.834 258.826C216.834 265.159 216.462 274.061 214.402 278.119L214.682 311.417C214.682 311.417 204.812 315.017 196.572 313.92L195.354 260.488C195.354 260.488 197.138 230.188 197.796 224.376C198.181 221.359 198.336 218.316 198.26 215.275C198.26 215.275 197.98 206.18 197.041 201.958C197.041 201.958 196.022 183.67 195.915 178.607C195.869 176.185 196.001 169.119 196.139 162.399C196.297 155.052 196.476 148.123 196.476 148.123L194.018 133.2C194.018 133.2 196.476 133.2 197.041 133.96C197.29 134.197 197.564 134.407 197.857 134.587C201.069 136.759 212.424 143.438 212.424 143.438C212.424 143.438 218.7 145.936 220.204 149.515C221.708 153.094 222.753 155.633 223.487 156.653C224.221 157.673 224.609 162.465 224.609 162.465C224.609 162.465 226.771 171.286 228.458 172.779C230.146 174.273 231.364 183.756 231.364 183.756L216.451 195.483C216.451 195.483 215.141 214.99 214.856 215.744C214.57 216.499 220.306 233.365 220.306 233.365Z" fill="white"/>
<path opacity="0.1" d="M202.445 152.451L203.791 156.377L196.705 163.514C196.863 156.173 197.041 149.239 197.041 149.239L194.584 134.317C194.584 134.317 197.041 134.317 197.607 135.076C197.855 135.313 198.129 135.522 198.423 135.698L204.449 153.083L202.445 152.451Z" fill="black"/>
<path d="M201.88 151.324L203.231 155.25L196.144 162.387C196.302 155.041 196.481 148.112 196.481 148.112L194.018 133.19C194.018 133.19 196.481 133.19 197.041 133.95C197.291 134.186 197.565 134.396 197.857 134.577L203.888 151.956L201.88 151.324Z" fill="white"/>
<path opacity="0.1" d="M201.88 112.48C201.884 114.317 201.595 116.143 201.023 117.889C200.927 117.904 200.829 117.9 200.734 117.876C200.64 117.853 200.551 117.81 200.473 117.752C200.34 113.163 198.082 108.855 195.303 105.189C194.523 104.082 193.577 103.102 192.499 102.283C191.409 101.464 190.053 101.081 188.695 101.207C187.166 101.416 185.815 102.456 184.27 102.589C182.23 102.757 180.405 101.345 178.381 101.273C177.558 101.281 176.746 101.465 176 101.811C175.254 102.157 174.59 102.659 174.052 103.282C172.989 104.54 172.199 106.006 171.733 107.585C170.931 109.981 170.494 112.483 170.438 115.009C170.412 116.436 170.274 118.226 168.949 118.746C169.049 117.696 168.929 116.637 168.598 115.635C168.268 114.634 167.732 113.712 167.027 112.929L166.996 112.898C166.996 112.755 166.996 112.623 166.996 112.48C166.957 110.164 167.379 107.863 168.237 105.712C169.096 103.561 170.375 101.602 171.999 99.9507C173.623 98.2989 175.559 96.987 177.695 96.0915C179.831 95.1959 182.124 94.7347 184.441 94.7347C186.757 94.7347 189.05 95.1959 191.186 96.0915C193.322 96.987 195.259 98.2989 196.882 99.9507C198.506 101.602 199.785 103.561 200.644 105.712C201.503 107.863 201.925 110.164 201.885 112.48H201.88Z" fill="black"/>
<path d="M191.663 84.78C189.013 83.5337 186 83.298 183.189 84.1172C181.777 84.5352 180.446 85.2133 179.013 85.5549C175.954 86.2942 172.385 85.4937 169.76 87.2833C168.301 88.303 167.424 89.9141 166.609 91.4793L164.569 95.3644C163.458 97.4904 162.336 99.6522 161.872 101.992C161.408 104.333 161.689 106.953 163.172 108.835C164.253 110.206 165.849 111.068 167.022 112.358C167.724 113.142 168.257 114.063 168.587 115.064C168.917 116.064 169.037 117.121 168.939 118.17C170.269 117.66 170.397 115.865 170.427 114.438C170.484 111.912 170.921 109.41 171.722 107.014C172.188 105.434 172.978 103.969 174.042 102.711C174.58 102.088 175.244 101.587 175.99 101.241C176.737 100.894 177.548 100.711 178.371 100.702C180.41 100.774 182.241 102.181 184.26 102.013C185.789 101.885 187.145 100.84 188.685 100.636C190.043 100.508 191.399 100.891 192.489 101.712C193.566 102.53 194.511 103.51 195.288 104.618C198.071 108.284 200.33 112.582 200.463 117.181C201.039 117.604 201.87 117.053 202.155 116.401C202.441 115.748 202.451 114.983 202.813 114.361C203.231 113.642 204.031 113.26 204.659 112.72C206.249 111.348 206.647 109.038 206.586 106.943C206.525 104.848 206.117 102.721 206.514 100.662C206.754 99.3972 207.295 98.2144 207.59 96.9653C207.886 95.7162 207.922 94.3141 207.223 93.2383C206.203 91.6578 204.057 91.3468 202.186 91.1989C200.06 91.0154 198.158 91.2499 196.802 89.4603C196.165 88.5265 195.449 87.6497 194.66 86.8397C194.39 86.5746 191.663 84.8921 191.663 84.78Z" fill="#512E4E"/>
<path opacity="0.1" d="M136.247 192.296L130.919 182.446L129.232 197.644C129.232 197.644 130.17 204.395 129.981 205.43C129.793 206.465 133.825 215.744 133.825 215.744C133.825 215.744 147.147 239.471 152.587 240.695L170.967 227.562L166.093 221.372C166.093 221.372 164.405 220.714 163.982 221.372C163.982 221.372 154.933 205.802 153.995 204.675C153.056 203.548 153.24 201.3 153.24 201.3C153.24 201.3 151.833 199.801 152.302 198.394C152.771 196.987 149.584 192.108 149.584 192.108L152.491 189.39L136.247 192.296Z" fill="black"/>
<path d="M131.2 181.325L129.793 182.446L128.105 197.644C128.105 197.644 129.043 204.395 128.855 205.43C128.666 206.465 132.704 215.744 132.704 215.744C132.704 215.744 146.021 239.471 151.461 240.695L169.845 227.562L164.966 221.372C164.966 221.372 163.279 220.714 162.856 221.372C162.856 221.372 153.806 205.802 152.868 204.675C151.93 203.548 152.118 201.3 152.118 201.3C152.118 201.3 150.711 199.801 151.18 198.394C151.649 196.987 148.458 192.108 148.458 192.108L151.364 189.39L131.2 181.325Z" fill="white"/>
<path opacity="0.1" d="M218.521 240.864C219.54 242.103 218.898 247.665 218.898 247.665L216.084 252.325C216.084 252.325 216.252 255.333 216.262 259.386L211.531 260.864C211.104 260.998 210.65 261.027 210.209 260.95C209.768 260.872 209.351 260.691 208.995 260.42C208.638 260.149 208.351 259.797 208.158 259.392C207.965 258.988 207.872 258.544 207.886 258.096L208.702 231.784L219.739 236.005C218.801 236.658 219.831 238.259 219.831 238.259C219.831 238.259 217.491 239.625 218.521 240.864Z" fill="black"/>
<path d="M219.087 240.298C220.106 241.537 219.464 247.104 219.464 247.104L216.65 251.764C216.65 251.764 216.818 254.767 216.833 258.825L212.016 260.329C211.597 260.459 211.153 260.487 210.721 260.411C210.289 260.335 209.882 260.157 209.533 259.892C209.184 259.626 208.903 259.282 208.714 258.886C208.525 258.49 208.433 258.055 208.447 257.617L209.268 231.223L220.31 235.445C219.367 236.097 220.397 237.693 220.397 237.693C220.397 237.693 218.067 239.064 219.087 240.298Z" fill="white"/>
<path d="M222.742 227.756C222.742 227.756 221.993 232.543 220.117 232.824C218.241 233.104 217.399 240.568 215.528 240.303C213.657 240.038 214.896 233.364 214.963 232.069C215.029 230.774 212.923 225.411 214.499 224.192C216.074 222.974 221.06 224.192 221.06 224.192L222.742 227.756Z" fill="#CF6F80"/>
<path opacity="0.1" d="M226.735 190.889L230.273 183.751C230.273 183.751 231.681 189.191 231.681 192.098C231.681 195.004 233.649 195.289 233.649 195.289C233.649 195.289 235.805 197.838 234.668 199.694C233.531 201.55 233.072 206.169 233.072 206.169C233.072 206.169 233.445 214.985 231.757 216.203C230.069 217.422 229.718 220.333 229.718 220.333C229.718 220.333 226.618 225.865 226.715 227.18C226.811 228.496 222.401 237.403 222.401 237.403C222.401 237.403 224.558 226.334 211.99 221.551C211.99 221.551 211.893 217.794 212.831 216.764C213.77 215.734 215.233 215.265 214.315 210.06C213.397 204.854 214.05 198.634 214.05 197.385C214.05 196.136 216.864 188.345 216.864 188.345L226.735 190.889Z" fill="black"/>
<path d="M228.265 182.732L231.354 183.751C231.354 183.751 232.766 189.191 232.766 192.098C232.766 195.004 234.734 195.289 234.734 195.289C234.734 195.289 236.891 197.838 235.754 199.694C234.617 201.55 234.163 206.169 234.163 206.169C234.163 206.169 234.536 214.985 232.848 216.203C231.16 217.422 230.783 220.333 230.783 220.333C230.783 220.333 227.688 225.865 227.785 227.18C227.882 228.496 223.467 237.403 223.467 237.403C223.467 237.403 225.629 226.334 213.056 221.551C213.056 221.551 212.964 217.794 213.902 216.764C214.84 215.734 216.304 215.265 215.386 210.059C214.468 204.854 215.121 198.634 215.121 197.385C215.121 196.136 217.935 188.345 217.935 188.345L228.265 182.732Z" fill="white"/>
<path opacity="0.1" d="M160.021 367.74C160.021 367.74 164.946 364.645 168.179 366.893C171.411 369.142 160.021 367.74 160.021 367.74Z" fill="black"/>
<path opacity="0.1" d="M198.291 358.17C198.291 358.17 202.65 357.609 206.31 361.55C209.971 365.491 198.291 358.17 198.291 358.17Z" fill="black"/>
<g opacity="0.1">
<path opacity="0.1" d="M204.668 111.603C204.041 112.143 203.236 112.531 202.818 113.25C202.461 113.866 202.451 114.626 202.165 115.289C201.88 115.952 201.048 116.492 200.472 116.074C200.34 111.485 198.076 107.177 195.297 103.506C194.521 102.399 193.576 101.418 192.498 100.6C191.407 99.7798 190.049 99.3962 188.69 99.5244C187.16 99.7335 185.814 100.774 184.269 100.901C182.23 101.074 180.4 99.6621 178.376 99.5907C177.553 99.5989 176.742 99.7828 175.996 100.13C175.25 100.477 174.588 100.98 174.052 101.605C172.988 102.86 172.198 104.324 171.732 105.903C170.931 108.298 170.495 110.801 170.437 113.326C170.407 114.748 170.274 116.523 168.959 117.053C168.989 117.43 168.989 117.808 168.959 118.185C170.284 117.675 170.417 115.88 170.447 114.453C170.504 111.927 170.941 109.425 171.743 107.029C172.208 105.449 172.998 103.984 174.062 102.726C174.599 102.104 175.262 101.602 176.008 101.256C176.753 100.91 177.564 100.726 178.386 100.717C180.425 100.789 182.261 102.196 184.28 102.028C185.809 101.9 187.165 100.855 188.7 100.651C190.059 100.523 191.417 100.907 192.509 101.727C193.586 102.545 194.531 103.525 195.308 104.633C198.086 108.299 200.35 112.597 200.483 117.196C201.059 117.619 201.89 117.068 202.175 116.416C202.461 115.763 202.471 114.998 202.828 114.376C203.246 113.657 204.051 113.275 204.679 112.735C206.269 111.363 206.667 109.053 206.606 106.958C206.606 106.892 206.606 106.825 206.606 106.764C206.509 108.579 206.025 110.43 204.668 111.603Z" fill="black"/>
<path opacity="0.1" d="M167.032 111.24C165.859 109.95 164.258 109.089 163.182 107.722C162.277 106.513 161.759 105.057 161.699 103.547C161.538 105.434 162.065 107.315 163.182 108.844C164.258 110.215 165.859 111.077 167.032 112.367C168.157 113.628 168.833 115.228 168.954 116.914C169.032 115.888 168.902 114.856 168.571 113.881C168.241 112.906 167.717 112.008 167.032 111.24V111.24Z" fill="black"/>
<path opacity="0.1" d="M207.6 95.8486C207.3 97.0977 206.764 98.2856 206.52 99.5448C206.375 100.386 206.322 101.241 206.361 102.094C206.379 101.608 206.431 101.124 206.52 100.646C206.764 99.3817 207.3 98.1989 207.6 96.9499C207.776 96.2609 207.833 95.5472 207.769 94.8392C207.737 95.1793 207.681 95.5167 207.6 95.8486V95.8486Z" fill="black"/>
</g>
<path opacity="0.5" d="M68.1574 388.47C95.5946 388.47 117.837 384.898 117.837 380.491C117.837 376.084 95.5946 372.512 68.1574 372.512C40.7201 372.512 18.4779 376.084 18.4779 380.491C18.4779 384.898 40.7201 388.47 68.1574 388.47Z" fill="#267AF9"/>
<path d="M69.7581 227.639H66.5615V299.613H69.7581V227.639Z" fill="#535461"/>
<path d="M89.8462 299.395L89.6474 302.637L89.3619 307.226L89.2446 309.133L88.9642 313.722L88.8418 315.628L88.5563 320.217L85.3341 372.257C85.194 374.496 84.206 376.598 82.5712 378.134C80.9364 379.67 78.7775 380.526 76.5341 380.527H59.7805C57.5376 380.526 55.3794 379.67 53.7454 378.134C52.1114 376.597 51.1245 374.496 50.9857 372.257L47.7787 320.181L47.4932 315.593L47.376 313.686L47.0904 309.097L46.9732 307.19L46.6877 302.602L46.4837 299.359C46.4483 298.735 46.5408 298.11 46.7555 297.523C46.9702 296.936 47.3025 296.399 47.7322 295.945C48.1619 295.491 48.6798 295.13 49.2542 294.883C49.8285 294.636 50.4473 294.509 51.0724 294.511H85.3392C85.9619 294.516 86.577 294.649 87.1463 294.901C87.7157 295.153 88.2274 295.52 88.6497 295.977C89.072 296.435 89.3961 296.974 89.6019 297.562C89.8077 298.15 89.8908 298.774 89.8462 299.395V299.395Z" fill="#3F3D56"/>
<path d="M89.6474 302.637L89.3619 307.211H46.9528L46.6673 302.637H89.6474Z" fill="#9D9CB5"/>
<path d="M89.2446 309.118L88.9642 313.696H47.3556L47.0701 309.118H89.2446Z" fill="#9D9CB5"/>
<path d="M88.8418 315.608L88.5614 320.181H47.7584L47.4728 315.608H88.8418Z" fill="#9D9CB5"/>
<path d="M41.7871 254.615C60.4012 268.085 68.1711 289.151 68.1711 289.151C68.1711 289.151 45.7384 288.381 27.1191 274.911C8.49993 261.441 0.745323 240.38 0.745323 240.38C0.745323 240.38 23.1679 241.145 41.7871 254.615Z" fill="#BF1F3C"/>
<path d="M0.730072 240.38C0.730072 240.38 24.0194 253.304 31.4885 264.006C38.9576 274.707 68.1712 289.151 68.1712 289.151" stroke="#535461" stroke-width="2" stroke-miterlimit="10"/>
<path d="M53.8051 227.481C63.9357 234.807 68.1726 246.274 68.1726 246.274C68.1726 246.274 55.9617 245.856 45.826 238.529C35.6902 231.203 31.4636 219.731 31.4636 219.731C31.4636 219.731 43.6693 220.149 53.8051 227.481Z" fill="#BF1F3C"/>
<path d="M31.4636 219.731C31.4636 219.731 44.1384 226.767 48.2019 232.59C52.2653 238.412 68.1726 246.274 68.1726 246.274" stroke="#535461" stroke-width="2" stroke-miterlimit="10"/>
<path d="M82.8816 245.693C71.2418 258.485 68.7793 275.203 68.7793 275.203C68.7793 275.203 85.1912 271.175 96.8209 258.378C108.45 245.581 110.923 228.868 110.923 228.868C110.923 228.868 94.5214 232.901 82.8816 245.693Z" fill="#BF1F3C"/>
<path d="M110.933 228.873C110.933 228.873 95.7707 241.986 91.9162 251.021C88.0618 260.055 68.7794 275.203 68.7794 275.203" stroke="#535461" stroke-width="2" stroke-miterlimit="10"/>
<path d="M510.164 241.191C510.164 241.191 501.746 199.312 504.969 194.101C504.969 194.101 505.086 189.258 504.892 183.083C504.892 182.849 504.892 182.614 504.892 182.375C505.459 182.753 506.05 183.093 506.661 183.394C509.63 184.92 513.039 185.36 516.297 184.639L513.748 181.799C513.136 181.121 512.499 180.386 512.366 179.489C512.234 178.592 512.601 177.791 512.917 176.991C515.339 170.873 515.466 163.179 510.801 158.509C506.86 154.583 505.902 149.515 501.624 145.931C498.499 143.305 496.78 139.456 495.159 135.734C493.788 132.588 492.406 129.417 491.621 126.083C491.009 123.477 490.764 120.78 489.923 118.236C489.082 115.692 487.506 113.219 485.044 112.082C484.167 111.679 483.193 111.45 482.393 110.915C481.342 110.206 480.71 109.054 479.95 108.044C476.091 102.946 463.166 105.949 457.048 108.019C455.385 108.54 453.845 109.393 452.521 110.527L452.577 110.435C452.623 110.359 452.679 110.282 452.73 110.206C452.06 110.747 451.482 111.393 451.017 112.118C450.124 113.53 449.752 115.177 449.008 116.707C448.11 118.516 443.119 123.569 445.266 125.603C445.416 125.74 445.588 125.85 445.775 125.93C446.581 126.265 447.468 126.354 448.325 126.185L448.233 126.404C447.5 128.199 447.124 130.119 447.126 132.058C447.126 140.435 454.035 147.226 462.565 147.226C464.168 147.227 465.762 146.982 467.291 146.497C467.327 146.691 467.357 146.884 467.393 147.078C467.393 147.155 467.418 147.231 467.429 147.308L467.158 147.685C467.145 147.662 467.129 147.639 467.112 147.619L459.108 158.805C457.884 159.666 450.838 164.765 450.44 168.589C450.022 172.774 449.604 177.674 449.604 177.674L449.548 178.724C449.198 179.017 448.789 179.23 448.349 179.348C447.909 179.467 447.448 179.489 446.999 179.413C444.501 179.005 444.501 188.59 444.501 188.59C444.501 188.59 442.839 190.119 441.697 188.794C440.555 187.468 437.536 191.96 437.536 191.96L418.621 192.776L418.188 192.801L417.168 189.645C417.058 189.312 416.821 189.036 416.509 188.877C416.197 188.717 415.835 188.687 415.501 188.794C415.422 188.82 415.345 188.852 415.271 188.891L415.2 188.931L415.067 189.023L415.001 189.084C414.964 189.118 414.93 189.153 414.899 189.191L414.838 189.263L414.807 189.293C414.69 189.456 414.612 189.644 414.58 189.843C414.548 190.041 414.563 190.244 414.624 190.435L415.501 193.143C411.85 193.877 408.118 195.947 411.162 201.647L395.734 198.797L400.725 202.988L426.493 208.306C426.151 208.917 426.376 209.805 427.441 211.054C432.03 216.443 440.391 217.906 443.756 218.283C444.645 220.271 445.755 222.153 447.065 223.892L446.775 229.26C446.775 229.26 438.255 270.181 436.695 272.256C437.483 271.363 438.203 270.414 438.852 269.416C436.379 277.823 432.922 289.33 432.015 291.054C430.556 293.807 429.205 304.947 430.867 305.661C431.377 305.88 432.835 305.773 434.916 305.615V306.538L434.824 341.508C434.824 341.508 435.242 362.957 434.095 365.002C432.948 367.046 432.642 371.334 432.642 371.334C432.642 371.334 428.053 379.793 424.418 383.193C424.393 383.22 424.366 383.244 424.336 383.265L424.224 382.469C424.224 382.469 419.855 387.986 410.188 387.675C410.188 387.675 404.371 391.458 412.997 391.662C421.624 391.866 432.642 391.356 432.642 391.356C432.642 391.356 440.335 379.629 446.78 381.159V390.046H448.753V381.016C449.668 380.414 450.451 379.632 451.055 378.718C451.659 377.804 452.071 376.777 452.266 375.698C452.435 374.587 452.311 373.451 451.907 372.403C451.503 371.354 450.832 370.429 449.961 369.718C449.57 369.364 449.256 368.934 449.039 368.453C448.823 367.972 448.708 367.451 448.702 366.924L448.63 366.985C448.63 366.807 448.585 366.623 448.564 366.435C447.998 361.846 447.29 352.378 449.793 345.373C453.224 335.767 454.264 322.389 451.766 314.425C450.96 311.879 450.298 309.29 449.783 306.67C449.722 306.339 449.666 306.023 449.615 305.727C451.322 305.958 453.013 306.299 454.677 306.747C460.464 308.343 473.124 308.638 483.932 308.552C483.958 308.847 483.988 309.158 484.024 309.469C484.217 311.631 484.62 313.769 485.227 315.853C486.584 319.931 487.206 337.914 487.206 337.914C487.206 337.914 488.954 352.699 488.001 358.715C487.491 362.06 486.981 365.42 486.691 368.795V368.861C486.691 368.861 483.825 377.019 481.73 381.45C481.679 381.562 481.623 381.674 481.572 381.781C481.013 381.832 480.463 381.954 479.935 382.143C479.935 382.143 477.126 387.751 474.327 388.679C471.528 389.607 472.456 392.661 478.793 391.539C485.13 390.418 494.7 389.5 494.7 389.5L495.113 383.78L497.061 381.342L496.551 387.048L498.626 386.64L498.351 379.701L501.537 375.714C501.537 375.714 505.387 372.288 499.666 365.547V365.695C499.605 365.598 499.549 365.496 499.483 365.4V365.369C498.534 363.901 497.78 361.163 499.161 356.304C501.66 347.524 503.113 339.555 503.113 339.555C503.113 339.555 508.69 318.208 501.986 308.108H502.282C501.595 306.687 501.109 305.177 500.839 303.621C500.805 303.438 500.774 303.249 500.747 303.056C505.708 302.77 510.577 301.873 514.549 299.935C514.533 299.915 512.142 249.256 510.164 241.191ZM447.183 205.858V205.96L446.163 206.011L447.183 205.858ZM443.685 206.343C443.517 206.38 443.36 206.455 443.226 206.562C442.788 207.182 442.512 207.903 442.426 208.657L440.835 208.3C440.835 208.3 439.718 208.061 438.112 207.791L437.353 207.026C439.443 206.853 441.615 206.598 443.685 206.343V206.343Z" fill="url(#paint1_linear)"/>
<path d="M496.316 379.772L495.71 386.996L497.744 386.588L497.438 378.753L496.316 379.772Z" fill="#1D2366"/>
<path d="M449.905 345.47C447.453 352.455 448.146 361.882 448.697 366.46C448.901 368.153 449.089 369.183 449.089 369.183C449.089 369.183 445.423 377.534 445.118 377.85C444.812 378.166 434.329 384.565 434.329 384.565L427.003 388.842C427.003 388.842 419.569 385.585 423.133 384.463C423.861 384.171 424.517 383.724 425.055 383.153C428.624 379.762 433.106 371.334 433.106 371.334C433.106 371.334 433.412 367.057 434.533 365.022C435.655 362.988 435.247 341.61 435.247 341.61L435.334 306.762V302.219L449.278 302.321C449.366 303.864 449.567 305.397 449.88 306.91C450.38 309.521 451.029 312.102 451.822 314.639C454.279 322.588 453.26 335.9 449.905 345.47Z" fill="#FFB0B1"/>
<path opacity="0.1" d="M449.088 369.183C449.088 369.183 445.422 377.533 445.116 377.85C444.811 378.166 434.329 384.564 434.329 384.564L427.003 388.841C427.003 388.841 419.569 385.584 423.133 384.462C423.861 384.17 424.517 383.723 425.055 383.152L425.371 385.38L427.813 385.278L448.716 366.47C448.899 368.153 449.088 369.183 449.088 369.183Z" fill="black"/>
<path d="M448.834 366.944L427.813 385.88L425.371 385.982L424.861 382.413C424.861 382.413 420.589 387.909 411.096 387.603C411.096 387.603 405.395 391.371 413.844 391.575C422.292 391.779 433.08 391.269 433.08 391.269C433.08 391.269 440.616 379.543 446.923 381.072V389.928H448.86V380.991C449.761 380.384 450.53 379.602 451.12 378.691C451.711 377.779 452.111 376.758 452.296 375.688C452.464 374.586 452.345 373.459 451.952 372.416C451.558 371.374 450.902 370.449 450.048 369.733C449.666 369.376 449.362 368.944 449.153 368.464C448.945 367.985 448.836 367.467 448.834 366.944V366.944Z" fill="#1D2366"/>
<path d="M498.254 356.36C496.898 361.204 497.637 363.931 498.565 365.395V365.425C499.755 367.232 500.583 369.253 501.002 371.375L501.084 371.834L491.519 385.778L486.329 387.818C486.329 387.818 477.982 384.968 479.507 384.152C479.889 383.953 480.486 382.892 481.169 381.429C483.208 377.019 486.023 368.882 486.023 368.882V368.816C486.318 365.456 486.787 362.106 487.307 358.772C488.24 352.771 486.527 338.041 486.527 338.041C486.527 338.041 485.916 320.13 484.59 316.057C483.992 313.985 483.594 311.862 483.402 309.714C483.127 307.165 483.066 305.064 483.066 305.064C483.066 305.064 488.562 297.417 498.636 305.676C499.442 306.335 500.151 307.104 500.742 307.96C507.701 317.862 502.098 339.673 502.098 339.673C502.098 339.673 500.696 347.606 498.254 356.36Z" fill="#FFB0B1"/>
<path opacity="0.1" d="M501.098 371.834L491.533 385.777L486.344 387.816C486.344 387.816 477.998 384.966 479.522 384.151C479.904 383.952 480.501 382.892 481.184 381.428C484.717 381.398 486.547 384.763 486.547 384.763L491.024 384.049C491.024 384.049 496.927 372.445 498.253 371.737C499.578 371.028 498.457 366.44 498.457 366.44V365.272C498.493 365.313 498.523 365.359 498.564 365.4V365.43C499.754 367.237 500.582 369.257 501.001 371.38L501.098 371.834Z" fill="black"/>
<path d="M486.853 385.063C486.853 385.063 484.304 380.383 479.42 382.112C479.42 382.112 476.672 387.72 473.924 388.627C471.176 389.535 472.094 392.593 478.303 391.477C484.513 390.36 493.873 389.438 493.873 389.438L494.281 383.733L500.593 375.693C500.593 375.693 504.355 372.282 498.757 365.568V366.735C498.757 366.735 499.879 371.324 498.553 372.032C497.228 372.741 491.344 384.35 491.344 384.35L486.853 385.063Z" fill="#1D2366"/>
<path opacity="0.1" d="M449.293 302.311C449.381 303.853 449.582 305.387 449.894 306.9C444.154 306.058 438.826 306.476 435.334 306.752V302.209L449.293 302.311Z" fill="black"/>
<path opacity="0.1" d="M501.307 309.229C501.307 309.229 493.15 309.627 483.422 309.709C483.147 307.159 483.086 305.059 483.086 305.059C483.086 305.059 488.582 297.412 498.656 305.671C499.461 306.33 500.17 307.098 500.761 307.955C500.919 308.389 501.102 308.815 501.307 309.229V309.229Z" fill="black"/>
<path d="M501.308 308.312C501.308 308.312 465.578 310.04 454.687 306.986C443.797 303.933 433.004 306.579 431.377 305.87C429.751 305.161 431.071 294.062 432.499 291.314C433.927 288.566 441.758 260.774 441.758 260.774L449.293 221.485L457.232 219.298L457.792 219.14L471.625 215.326L481.76 212.527C481.76 212.527 501.914 291.212 500.186 297.014C499.558 299.236 499.457 301.573 499.89 303.841C500.154 305.389 500.631 306.894 501.308 308.312V308.312Z" fill="#1D2366"/>
<path d="M423.026 194.616C423.026 194.616 415.888 202.264 421.292 206.526C426.696 210.788 430.25 206.933 430.25 206.933L423.026 194.616Z" fill="#C7DAF5"/>
<path opacity="0.1" d="M423.026 194.616C423.026 194.616 415.888 202.264 421.292 206.526C426.696 210.788 430.25 206.933 430.25 206.933L423.026 194.616Z" fill="black"/>
<path d="M480.694 144.334C480.694 144.334 479.858 145.13 478.599 146.302C476.804 147.98 474.148 150.432 471.792 152.486C468.53 155.326 465.838 157.411 466.801 155.632C467.765 153.853 467.581 150.753 467.102 147.852C467.066 147.658 467.036 147.465 467 147.276C466.603 145.146 466.077 143.041 465.425 140.975C465.425 140.975 470.696 134.163 473.613 131.477C474.698 130.457 475.458 130.039 475.504 130.748C475.555 131.701 476.269 133.807 477.156 136.04C477.181 136.111 477.207 136.177 477.237 136.249C477.829 137.778 478.497 139.348 479.083 140.704C479.98 142.785 480.694 144.334 480.694 144.334Z" fill="#FFB0B1"/>
<path opacity="0.1" d="M477.237 136.249C476.742 138.913 475.54 141.396 473.757 143.437C471.974 145.478 469.676 147.003 467.102 147.852C466.697 145.525 466.136 143.227 465.425 140.975C465.425 140.975 475.351 128.153 475.504 130.748C475.54 131.732 476.315 133.914 477.237 136.249Z" fill="black"/>
<path opacity="0.1" d="M466.113 151.279L467.398 149.469C467.398 149.469 468.249 154.659 471.379 152.37C474.51 150.081 474.663 169.598 474.663 169.598L471.303 219.832L447.024 218.379L447.713 194.105L450.461 181.869L457.257 164.081L461.3 158.203L466.113 151.279Z" fill="black"/>
<path d="M474.663 169.909L471.604 215.33L471.283 220.143L457.746 219.332L457.237 219.302L447.04 218.69L447.728 194.411L450.476 182.175L457.272 164.387L461.315 158.509L466.128 151.56L467.413 149.755C467.413 149.755 468.264 154.945 471.395 152.656L471.461 152.61C474.52 150.672 474.663 169.909 474.663 169.909Z" fill="#1D2366"/>
<path d="M450.818 177.924C450.818 177.924 449.599 180.473 447.152 180.06C444.705 179.647 444.71 189.237 444.71 189.237C444.71 189.237 443.083 190.767 441.962 189.441C440.84 188.116 437.883 192.597 437.883 192.597L419.355 193.413C419.355 193.413 427.599 197.181 425.983 208.581C425.983 208.581 453.974 206.847 454.891 204.201C455.809 201.555 450.818 177.924 450.818 177.924Z" fill="white"/>
<path opacity="0.03" d="M450.818 177.924C450.818 177.924 449.599 180.473 447.152 180.06C444.705 179.647 444.71 189.237 444.71 189.237C444.71 189.237 443.083 190.767 441.962 189.441C440.84 188.116 437.883 192.597 437.883 192.597L419.355 193.413C419.355 193.413 427.599 197.181 425.983 208.581C425.983 208.581 453.974 206.847 454.891 204.201C455.809 201.555 450.818 177.924 450.818 177.924Z" fill="black"/>
<path d="M396.973 199.404L401.857 203.574L442.064 212.022L437.077 206.934L396.973 199.404Z" fill="white"/>
<path d="M466.19 152.885C465.522 153.905 463.61 159.126 462.014 163.684C460.683 167.482 459.572 170.822 459.572 170.822C459.572 170.822 456.977 187.718 455.651 190.772C454.325 193.826 455.044 205.736 455.044 205.736L450.104 235.149C450.104 235.149 447.866 250.317 444.409 259.377C440.998 268.294 437.2 272.475 437.082 272.607C438.612 270.538 446.948 229.78 446.948 229.78L449.701 178.378C449.701 178.378 450.104 173.493 450.512 169.318C450.92 165.142 459.179 159.442 459.179 159.442L467.143 148.118C467.943 149.189 467.408 151.055 466.19 152.885Z" fill="white"/>
<path d="M445.423 218.946C445.423 218.946 433.697 218.436 428.017 211.614C422.338 204.793 441.145 208.892 441.145 208.892L446.034 210.013L445.423 218.946Z" fill="#FFB0B1"/>
<path opacity="0.1" d="M500.186 297.019C499.559 299.241 499.457 301.578 499.891 303.846C487.098 304.753 473.414 301.297 473.414 301.297C470.865 303.642 464.15 307.099 464.15 307.099L460.49 261.722C458.149 255.604 457.232 223.55 457.232 223.55C457.232 223.55 457.441 221.873 457.742 219.359C457.742 219.298 457.742 219.232 457.767 219.17C458.68 212.15 460.49 198.97 461.377 197.191C462.6 194.744 457.614 188.233 457.614 188.233L459.883 168.884L460.158 166.549C464.941 164.413 468.606 157.591 468.606 157.591L471.421 152.661C474.48 150.698 474.638 169.935 474.638 169.935L471.579 215.357L481.714 212.558C481.714 212.558 501.915 291.217 500.186 297.019Z" fill="black"/>
<path d="M513.315 300.154C499.37 307.078 474.026 300.664 474.026 300.664C471.477 303.01 464.762 306.466 464.762 306.466L461.096 261.09C458.761 254.972 457.843 222.918 457.843 222.918C457.843 222.918 460.79 199.001 462.014 196.559C462.371 195.845 462.197 194.784 461.774 193.642C459.694 188.207 458.929 182.356 459.541 176.568L460.52 168.252L460.79 165.922C465.578 163.781 469.244 156.959 469.244 156.959L471.793 152.493L476.483 144.264L478.706 140.368L479.084 140.71L481.964 143.321C481.964 143.321 483.188 144.34 485.023 145.87C489.015 149.235 495.914 155.159 499.472 158.784C502.603 161.976 503.592 174.391 503.877 183.736C504.066 189.89 503.954 194.713 503.954 194.713C500.798 199.908 509.052 241.619 509.052 241.619C510.974 249.68 513.315 300.154 513.315 300.154Z" fill="white"/>
<path opacity="0.03" d="M486.547 156.857C486.547 156.857 476.977 175.073 478.089 181.997C479.2 188.921 482.361 196.757 480.837 198.587C480.313 199.28 479.636 199.843 478.858 200.232C478.081 200.62 477.224 200.823 476.355 200.825C474.826 200.927 470.747 203.777 470.747 204.083C470.747 204.389 466.979 204.389 463.609 205.817C460.239 207.244 455.263 208.055 455.263 208.055C455.263 208.055 445.577 207.749 444.674 208.667C443.772 209.584 442.844 215.075 444.776 219.455C446.708 223.834 448.855 227.102 450.476 227.699C452.097 228.295 462.386 224.849 470.732 224.033C479.078 223.217 488.138 216.605 488.138 216.605C488.138 216.605 498.115 213.036 499.864 207.035C501.612 201.034 497.728 168.053 497.728 168.053C497.728 168.053 494.791 152.681 486.547 156.857Z" fill="black"/>
<path opacity="0.03" d="M485.323 155.327C485.323 155.327 475.754 173.549 476.875 180.467C477.997 187.386 481.148 195.227 479.618 197.063C479.096 197.757 478.42 198.32 477.644 198.709C476.867 199.097 476.01 199.3 475.142 199.301C473.612 199.403 469.534 202.253 469.534 202.559C469.534 202.865 465.766 202.865 462.396 204.287C459.026 205.709 454.05 206.525 454.05 206.525C454.05 206.525 444.363 206.219 443.466 207.137C442.568 208.055 441.63 213.551 443.568 217.925C445.505 222.3 447.646 225.573 449.268 226.169C450.889 226.766 461.177 223.319 469.523 222.509C477.87 221.698 486.929 215.075 486.929 215.075C486.929 215.075 496.902 211.506 498.63 205.511C500.358 199.515 496.494 166.523 496.494 166.523C496.494 166.523 493.567 151.157 485.323 155.327Z" fill="black"/>
<path d="M486.246 155.939C486.246 155.939 476.676 174.161 477.798 181.079C478.92 187.998 482.071 195.839 480.546 197.669C480.024 198.365 479.348 198.93 478.57 199.319C477.792 199.709 476.934 199.912 476.065 199.913C474.535 200.015 470.457 202.865 470.457 203.165C470.457 203.466 466.694 203.471 463.319 204.899C459.944 206.326 454.973 207.137 454.973 207.137C454.973 207.137 445.286 206.831 444.383 207.749C443.481 208.666 442.553 214.163 444.485 218.537C446.418 222.911 448.564 226.184 450.185 226.781C451.807 227.377 462.095 223.931 470.441 223.115C478.787 222.299 487.847 215.687 487.847 215.687C487.847 215.687 497.825 212.118 499.573 206.117C501.322 200.117 497.463 167.135 497.463 167.135C497.463 167.135 494.485 151.789 486.246 155.939Z" fill="white"/>
<path opacity="0.1" d="M486.038 204.813C486.038 204.813 478.39 203.284 481.052 205.833C483.713 208.382 483.698 210.615 486.955 210.513C490.213 210.411 486.038 204.813 486.038 204.813Z" fill="black"/>
<path opacity="0.1" d="M498.963 259.662C498.963 259.662 495.506 262.003 502.118 267.396C508.731 272.79 498.963 259.662 498.963 259.662Z" fill="black"/>
<path opacity="0.1" d="M492.365 278.899C492.365 279.205 491.142 290.115 495.72 292.843C500.298 295.57 492.365 278.899 492.365 278.899Z" fill="black"/>
<path d="M419.671 193.387C415.98 193.515 408.006 194.642 412.141 202.355C415.796 209.182 421.939 204.619 425.396 201.157C424.553 197.93 422.504 195.149 419.671 193.387V193.387Z" fill="#FFB0B1"/>
<path d="M425.443 201.096L425.595 200.938L425.443 201.096Z" fill="#FFB0B1"/>
<path opacity="0.1" d="M485.022 146.18C481.107 148.857 477.823 151.116 477.181 151.585C475.427 152.885 472.083 160.517 469.926 164.412C468.208 167.547 462.626 168.353 460.52 168.551L460.79 166.222C465.578 164.08 469.243 157.259 469.243 157.259L478.706 140.669L481.963 143.631C481.963 143.631 483.187 144.651 485.022 146.18Z" fill="black"/>
<path d="M485.022 145.875C481.107 148.551 477.823 150.81 477.181 151.284C475.427 152.579 472.083 160.211 469.926 164.106C468.208 167.241 462.626 168.047 460.52 168.245L460.79 165.916C465.578 163.774 469.243 156.953 469.243 156.953L478.705 140.363L481.963 143.315C481.963 143.315 483.187 144.325 485.022 145.875Z" fill="#DCE7FF"/>
<path d="M477.486 132.883C477.488 135.944 476.56 138.932 474.825 141.453C472.776 144.434 469.726 146.581 466.228 147.505C462.731 148.429 459.019 148.069 455.764 146.49C452.51 144.911 449.929 142.218 448.491 138.899C447.052 135.58 446.851 131.856 447.924 128.401C448.997 124.947 451.272 121.991 454.338 120.071C457.403 118.151 461.055 117.393 464.632 117.935C468.208 118.478 471.471 120.284 473.83 123.026C476.188 125.769 477.486 129.266 477.486 132.883V132.883Z" fill="#FFB0B1"/>
<path opacity="0.1" d="M503.876 183.74C501.806 182.466 500.12 180.655 498.997 178.499C498.146 176.816 497.58 174.874 496.127 173.681C494.816 172.61 493.068 172.35 491.436 171.871C486.073 170.285 481.576 165.391 481.408 159.803C481.326 157.172 482.147 154.547 481.775 151.941C481.563 150.467 480.977 149.071 480.072 147.888C479.623 147.322 479.13 146.792 478.599 146.303C477.885 145.63 477.135 144.977 476.483 144.263C476.072 143.821 475.712 143.334 475.412 142.81C475.17 142.382 474.973 141.929 474.826 141.459C473.806 138.339 474.734 134.638 473.612 131.482L473.551 131.308C473.128 130.187 472.266 129.065 471.068 128.978C469.87 128.892 468.845 129.886 467.703 130.329C465.312 131.257 462.732 129.677 460.739 128.066C458.746 126.455 456.497 124.614 453.963 124.971C452.286 125.211 450.96 126.353 449.416 126.944C449.067 127.079 448.707 127.183 448.34 127.255C449.647 123.995 452.049 121.291 455.133 119.61C458.217 117.928 461.79 117.373 465.239 118.039C468.688 118.706 471.797 120.553 474.032 123.263C476.267 125.972 477.489 129.376 477.487 132.889C477.489 133.95 477.378 135.007 477.156 136.045C477.181 136.116 477.207 136.182 477.237 136.254C477.829 137.783 478.497 139.353 479.083 140.71L481.964 143.32C481.964 143.32 483.187 144.34 485.023 145.869C489.015 149.234 495.913 155.158 499.471 158.783C502.602 161.985 503.581 174.395 503.876 183.74Z" fill="black"/>
<path d="M449.237 117.629C449.966 116.145 450.328 114.483 451.2 113.076C452.48 111.037 454.713 109.732 457.007 108.941C462.998 106.877 475.657 103.879 479.44 108.941C480.184 109.961 480.801 111.093 481.831 111.797C482.616 112.332 483.564 112.561 484.426 112.964C486.837 114.096 488.377 116.564 489.198 119.082C490.019 121.601 490.264 124.303 490.865 126.898C491.635 130.227 492.986 133.383 494.332 136.519C495.918 140.22 497.6 144.059 500.659 146.674C504.835 150.243 505.758 155.296 509.632 159.211C514.221 163.861 514.073 171.534 511.707 177.627C511.396 178.427 511.045 179.263 511.167 180.115C511.289 180.966 511.921 181.741 512.518 182.419L515.026 185.249C509.092 186.681 502.377 183.582 499.614 178.142C498.763 176.459 498.197 174.522 496.739 173.324C495.433 172.253 493.679 171.998 492.053 171.519C486.69 169.928 482.193 165.029 482.025 159.441C481.943 156.815 482.764 154.189 482.392 151.589C482.185 150.105 481.596 148.7 480.684 147.511C479.282 145.68 477.166 144.452 476.024 142.412C474.092 139.001 475.56 134.571 474.168 130.91C473.74 129.789 472.883 128.667 471.685 128.58C470.487 128.494 469.462 129.488 468.315 129.931C465.929 130.859 463.349 129.284 461.356 127.668C459.362 126.052 457.114 124.216 454.575 124.578C452.898 124.813 451.577 125.955 450.032 126.551C448.89 126.99 446.576 127.382 445.576 126.419C443.466 124.476 448.355 119.444 449.237 117.629Z" fill="#591D4B"/>
<path opacity="0.1" d="M501.031 176.459C500.175 174.777 499.614 172.839 498.156 171.646C496.851 170.576 495.097 170.316 493.465 169.836C488.107 168.251 483.61 163.351 483.437 157.764C483.355 155.138 484.176 152.507 483.809 149.907C483.596 148.432 483.008 147.037 482.101 145.854C480.694 144.023 478.578 142.795 477.441 140.755C475.509 137.35 476.977 132.919 475.58 129.253C475.157 128.137 474.296 127.015 473.103 126.924C471.91 126.832 470.875 127.836 469.733 128.28C467.347 129.208 464.762 127.627 462.773 126.016C460.785 124.405 458.526 122.564 455.992 122.921C454.315 123.161 452.99 124.303 451.45 124.894C450.308 125.333 447.988 125.731 446.989 124.767C444.888 122.728 449.778 117.706 450.655 115.901C451.384 114.412 451.746 112.755 452.622 111.348C452.668 111.272 452.719 111.195 452.77 111.119C452.114 111.662 451.548 112.306 451.093 113.025C450.221 114.433 449.859 116.084 449.13 117.578C448.248 119.383 443.359 124.42 445.464 126.444C446.484 127.413 448.778 127.015 449.92 126.577C451.45 125.98 452.786 124.838 454.463 124.604C457.012 124.242 459.255 126.082 461.244 127.693C463.232 129.304 465.832 130.885 468.208 129.957C469.35 129.513 470.349 128.514 471.573 128.606C472.797 128.698 473.612 129.814 474.056 130.936C475.448 134.597 473.98 139.027 475.912 142.438C477.054 144.442 479.17 145.696 480.572 147.536C481.484 148.725 482.073 150.131 482.28 151.615C482.652 154.215 481.831 156.841 481.913 159.466C482.081 165.075 486.578 169.954 491.941 171.544C493.557 172.024 495.321 172.279 496.626 173.349C498.09 174.547 498.666 176.485 499.502 178.167C502.265 183.607 508.98 186.707 514.914 185.274L513.731 183.939C508.587 184.015 503.382 181.089 501.031 176.459Z" fill="black"/>
<path opacity="0.1" d="M465.883 153.191C465.215 154.211 463.304 159.431 461.708 163.989C460.214 163.408 458.858 159.701 458.858 159.701L466.821 148.373C467.637 149.495 467.102 151.356 465.883 153.191Z" fill="black"/>
<path d="M466.189 152.885C465.521 153.905 463.61 159.125 462.014 163.683C460.52 163.107 459.164 159.395 459.164 159.395L467.127 148.072C467.943 149.189 467.408 151.055 466.189 152.885Z" fill="#DCE7FF"/>
<path d="M419.885 204.97L415.47 191.047C415.418 190.884 415.398 190.712 415.412 190.542C415.427 190.371 415.475 190.205 415.553 190.053C415.632 189.901 415.74 189.766 415.871 189.656C416.002 189.546 416.153 189.462 416.316 189.411V189.411C416.645 189.308 417.001 189.339 417.306 189.498C417.612 189.656 417.842 189.929 417.948 190.257L422.363 204.165L421.924 207.076L419.885 204.97Z" fill="#BE8B87"/>
<path opacity="0.1" d="M415.888 189.824C416.217 189.72 416.574 189.75 416.881 189.909C417.188 190.067 417.419 190.341 417.525 190.67L421.94 204.578L421.608 206.76L421.929 207.096L422.368 204.185L417.927 190.277C417.822 189.95 417.591 189.677 417.286 189.518C416.98 189.36 416.625 189.328 416.296 189.431V189.431C416.02 189.521 415.781 189.7 415.618 189.941C415.705 189.894 415.795 189.855 415.888 189.824V189.824Z" fill="white"/>
<path d="M419.885 204.971L422.363 204.186L422.001 206.572L421.925 207.097L421.201 206.343L419.885 204.971Z" fill="#EFC8C4"/>
<path d="M421.201 206.343C421.244 206.288 421.298 206.243 421.359 206.21C421.395 206.187 421.436 206.175 421.479 206.175C421.521 206.175 421.563 206.187 421.598 206.21C421.633 206.252 421.662 206.298 421.685 206.348C421.719 206.404 421.765 206.452 421.819 206.488C421.874 206.524 421.936 206.548 422.001 206.557L421.925 207.067L421.201 206.343Z" fill="#727A9C"/>
<path d="M415.445 195.993C415.445 195.993 424.3 195.942 422.215 199.709C420.13 203.477 416.872 203.931 416.872 203.931L415.445 195.993Z" fill="#FFB0B1"/>
</g>
<defs>
<linearGradient id="paint0_linear" x1="182.159" y1="395.751" x2="182.159" y2="82.0216" gradientUnits="userSpaceOnUse">
<stop stop-color="#808080" stop-opacity="0.25"/>
<stop offset="0.54" stop-color="#808080" stop-opacity="0.12"/>
<stop offset="1" stop-color="#808080" stop-opacity="0.1"/>
</linearGradient>
<linearGradient id="paint1_linear" x1="113806" y1="236713" x2="113806" y2="75673.6" gradientUnits="userSpaceOnUse">
<stop stop-color="#808080" stop-opacity="0.25"/>
<stop offset="0.54" stop-color="#808080" stop-opacity="0.12"/>
<stop offset="1" stop-color="#808080" stop-opacity="0.1"/>
</linearGradient>
<clipPath id="clip0">
<rect width="563.401" height="399.077" fill="white" transform="translate(0.485352 0.685791)"/>
</clipPath>
</defs>
</svg>
