<svg width="94" height="91" viewBox="0 0 94 91" fill="none" xmlns="http://www.w3.org/2000/svg">
<path d="M68.5598 0.84545L68.3368 0.844907C59.4665 0.823292 51.6102 5.49798 47.0809 12.4132C42.5853 5.47599 34.7519 0.763071 25.8815 0.741457L25.6586 0.740914C19.0015 0.788132 12.632 3.46067 7.93424 8.17775C3.23652 12.8948 0.590215 19.2753 0.57038 25.9325C0.550236 34.1994 4.14233 45.9383 11.1788 55.6077C24.5852 74.0322 46.8914 90.1776 46.8914 90.1776C46.8914 90.1776 69.2759 74.1441 82.769 55.7821C89.8555 46.1472 93.5018 34.4259 93.522 26.159C93.5346 19.5023 90.9198 13.1094 86.2457 8.36961C81.5717 3.62978 75.2161 0.925886 68.5598 0.84545ZM65.2329 57.1544C64.2227 57.1481 63.238 56.8365 62.4081 56.2604C61.5782 55.6844 60.9418 54.8709 60.5826 53.9266L55.2794 53.9137C54.9302 53.9107 54.5906 53.7987 54.3082 53.5934C54.0257 53.388 53.8144 53.0996 53.7037 52.7684L52.0867 47.8566L46.8882 65.8553C46.787 66.2017 46.5761 66.506 46.2872 66.7224C45.9983 66.9388 45.647 67.0556 45.286 67.0553L45.182 67.055C44.8054 67.0359 44.4468 66.8881 44.166 66.6364C43.8853 66.3847 43.6995 66.0442 43.6395 65.672L38.4053 33.709L34.4769 52.6056C34.3871 52.9645 34.1795 53.283 33.8875 53.5102C33.5954 53.7374 33.2357 53.8602 32.8657 53.8591L25.3954 53.8409C25.1715 53.8498 24.948 53.8134 24.7385 53.7337C24.529 53.654 24.3378 53.5328 24.1764 53.3773C24.015 53.2218 23.8867 53.0353 23.7992 52.8289C23.7118 52.6225 23.6669 52.4006 23.6675 52.1765C23.668 51.9523 23.7139 51.7306 23.8024 51.5247C23.8908 51.3187 24.02 51.1328 24.1822 50.9781C24.3444 50.8234 24.5362 50.7031 24.7461 50.6245C24.956 50.5458 25.1796 50.5104 25.4035 50.5205L31.5658 50.5355L37.1271 25.1298C37.2183 24.7542 37.4372 24.422 37.7462 24.1898C38.0553 23.9577 38.4353 23.8402 38.8214 23.8573C39.2076 23.8743 39.5758 24.025 39.8631 24.2835C40.1504 24.542 40.3391 24.8923 40.3967 25.2745L45.7424 57.8798L50.4011 41.7764C50.4981 41.4372 50.7022 41.1385 50.983 40.9249C51.2637 40.7113 51.606 40.5942 51.9587 40.5911L51.9914 40.5912C52.3408 40.5921 52.6809 40.7034 52.9633 40.909C53.2457 41.1147 53.456 41.4043 53.5641 41.7365L56.4884 50.6051L60.5253 50.615C60.8144 49.7437 61.3387 48.9692 62.0402 48.3771C62.7417 47.7849 63.5931 47.3981 64.5006 47.2593C65.408 47.1205 66.3362 47.2351 67.1826 47.5905C68.0291 47.9459 68.7608 48.5282 69.2972 49.2732C69.8336 50.0183 70.1537 50.897 70.2222 51.8124C70.2906 52.7279 70.1049 53.6445 69.6853 54.461C69.2658 55.2776 68.6288 55.9623 67.8447 56.4397C67.0606 56.9171 66.1598 57.1685 65.2418 57.1663L65.2329 57.1544Z" fill="#BF1F3C"/>
</svg>
