<svg width="493" height="545" viewBox="0 0 493 545" fill="none" xmlns="http://www.w3.org/2000/svg">
<g clip-path="url(#clip0)">
<path opacity="0.1" d="M246.697 545.129C382.944 545.129 493.394 530.692 493.394 512.883C493.394 495.074 382.944 480.637 246.697 480.637C110.45 480.637 0 495.074 0 512.883C0 530.692 110.45 545.129 246.697 545.129Z" fill="#0E60FF"/>
<path d="M131.762 478.679L150.574 467.477C148.03 463.091 144.778 459.164 140.952 455.859L105.461 467.041L133.275 450.531C126.39 446.723 118.641 444.791 110.792 444.925C102.942 445.059 95.262 447.254 88.5078 451.294C81.7536 455.333 76.1579 461.079 72.2714 467.965C68.385 474.851 66.3418 482.64 66.3429 490.566C66.3429 515.777 86.5799 516.65 111.554 516.65C136.529 516.65 156.766 515.777 156.766 490.566C156.775 484.187 155.452 477.879 152.883 472.051L131.762 478.679Z" fill="#CEDDFA"/>
<path opacity="0.1" d="M136.548 502.892C134.546 500.865 132.309 499.089 129.885 497.604C126.464 495.312 122.936 492.98 118.906 492.196C115.368 491.511 111.721 492.087 108.095 491.889C101.837 491.499 95.9473 488.772 91.5728 484.239C89.0075 481.56 86.9829 478.286 83.8967 476.212C80.5648 474.009 76.3385 473.533 72.3874 474.079C71.2424 474.253 70.1073 474.489 68.9867 474.783C67.213 479.75 66.3084 484.991 66.3134 490.271C66.3134 515.483 86.5504 516.356 111.525 516.356C123.643 516.356 134.642 516.147 142.76 513.052L141.404 510.492C140.11 507.762 138.479 505.208 136.548 502.892V502.892Z" fill="black"/>
<path d="M224.327 377.748C222.891 379.02 221.784 380.628 221.103 382.431C219.423 387.729 224.121 392.928 224.573 398.475C224.927 402.88 222.607 406.987 221.29 411.214C219.804 416.465 219.9 422.043 221.566 427.238C223.233 432.433 226.394 437.01 230.647 440.384C231.552 441.16 232.622 441.717 233.773 442.012C234.722 442.127 235.685 442.046 236.603 441.773C237.521 441.5 238.373 441.041 239.109 440.424C241.392 438.748 243.132 436.428 244.112 433.757C244.928 431.131 245.368 428.401 245.419 425.65L246.117 415.034C246.845 403.951 247.503 392.521 244.83 381.637C243.955 378.065 242.333 369.86 238.245 369.364C234.156 368.868 227.04 375.069 224.327 377.748Z" fill="#3F3D56"/>
<path d="M292.891 332.147C287.982 349.552 284.423 367.316 282.247 385.279C281.933 387.809 281.608 390.468 280.095 392.512C277.077 396.609 271.033 396.351 266.02 395.687C264.817 395.623 263.644 395.283 262.59 394.694C260.703 393.404 260.29 390.825 260.064 388.533C256.631 354.746 254.337 320.869 253.184 286.904C253.135 285.604 295.142 285.485 298.739 288.888C302.337 292.291 299.545 305.021 298.739 309.357C297.422 317.076 295.044 324.597 292.891 332.147Z" fill="#905151"/>
<path opacity="0.05" d="M292.891 332.147C287.982 349.552 284.423 367.316 282.247 385.279C281.933 387.809 281.608 390.468 280.095 392.512C277.077 396.609 271.033 396.351 266.02 395.687C264.817 395.623 263.644 395.283 262.59 394.694C260.703 393.404 260.29 390.825 260.064 388.533C256.631 354.746 254.337 320.869 253.184 286.904C253.135 285.604 295.142 285.485 298.739 288.888C302.337 292.291 299.545 305.021 298.739 309.357C297.422 317.076 295.044 324.597 292.891 332.147Z" fill="#985555"/>
<path d="M205.417 288.346L222.599 326.146C228.317 338.716 234.074 351.425 236.803 364.958C237.898 370.612 238.598 376.335 238.898 382.086C239.312 387.015 239.159 391.976 238.441 396.87C237.816 400.504 236.664 404.039 236.158 407.693C234.173 422.259 242.421 435.961 248.069 449.514C252.949 461.154 256.054 473.461 257.281 486.023C257.797 491.375 258.085 497.055 261.142 501.473C266.73 499.795 272.19 498.345 278.016 499.001C279.059 490.452 273.659 482.578 271.674 474.178C268.031 458.788 276.081 442.613 273.341 427.035C271.852 418.595 267.237 410.652 267.614 402.093C268.319 386.485 271.247 370.717 268.269 355.426C264.914 338.14 255.266 322.422 253.132 304.947C251.494 291.523 254.124 276.679 246.65 265.4C230.322 264.437 213.437 274.078 205.417 288.346Z" fill="#985555"/>
<path d="M261.332 519.283C259.632 519.342 257.646 519.283 256.595 517.923C256.081 517.133 255.786 516.218 255.739 515.274C254.934 509.293 254.54 503.263 254.56 497.226C254.56 495.024 254.658 492.682 255.877 490.867C256.771 489.759 257.791 488.76 258.914 487.89C261.519 485.459 263.416 481.937 266.777 480.816C268.25 480.383 269.811 480.363 271.294 480.756C272.778 481.149 274.128 481.941 275.2 483.048C277.321 485.331 278.634 488.258 278.935 491.373C279.426 495.064 279.014 499.082 280.95 502.287C281.716 503.527 282.788 504.539 283.653 505.71C286.601 509.678 289.245 517.447 283.161 519.054C276.714 520.751 268.025 519.064 261.332 519.283Z" fill="#3F3D56"/>
<path d="M276.085 58.533C279.525 51.8258 277.47 43.1938 272.556 37.4987C267.642 31.8036 260.457 28.6286 253.125 26.9121C243.296 24.5904 232.76 24.6102 223.354 28.2615C215.855 31.1686 209.398 36.1989 202.478 40.3066C190.25 47.5732 176.564 51.9807 162.427 53.2049C146.701 54.5444 129.138 52.4608 116.98 62.5711C94.7081 81.0853 110.218 122.807 89.4596 143.007C83.8574 148.454 76.3778 151.401 69.9597 155.836C63.5417 160.271 57.8018 167.365 58.8338 175.144C59.3252 178.885 61.3499 182.258 63.6891 185.205C73.7339 197.875 90.5998 204.513 106.552 202.538C122.503 200.564 137.109 190.225 144.883 175.997C146.849 172.436 148.441 168.536 151.537 165.947C157.739 160.777 166.84 162.871 174.88 162.623C192.758 162.067 208.995 146.599 210.557 128.601C211.226 120.911 209.928 111.962 215.403 106.565C219.816 102.199 226.716 102.239 232.75 100.899C243.837 98.4485 251.906 90.3523 256.968 80.4701C259.288 75.9259 259.052 70.8459 262.492 67.0757C266.158 62.9283 272.812 64.9028 276.085 58.533Z" fill="#3F3D56"/>
<g opacity="0.1">
<path opacity="0.1" d="M147.773 56.3502C154.293 55.7889 160.739 54.5487 167.007 52.6493C165.238 52.8973 163.469 53.1057 161.69 53.2545C149.365 54.2963 135.88 53.2545 124.774 57.6301C132.342 56.8463 140.273 56.9852 147.773 56.3502Z" fill="black"/>
<path opacity="0.1" d="M136.804 169.092C133.708 171.672 132.076 175.581 130.15 179.143C124.194 189.981 114.655 198.364 103.2 202.826C104.075 202.766 104.949 202.687 105.824 202.578C121.776 200.594 136.381 190.275 144.156 176.047C146.121 172.485 147.704 168.576 150.81 165.996L151.34 165.58C145.944 165.451 140.775 165.778 136.804 169.092Z" fill="black"/>
<path opacity="0.1" d="M271.819 37.5582C266.905 31.8631 259.671 28.698 252.388 26.9716C242.559 24.6499 232.023 24.6797 222.607 28.3309L221.978 28.5889C227.518 28.2707 233.073 28.7687 238.471 30.0673C245.754 31.7937 252.997 34.9587 257.902 40.6638C262.806 46.3688 264.87 54.9909 261.43 61.698C258.157 68.0678 251.503 66.0835 247.759 70.201C244.319 73.9614 244.554 79.0513 242.235 83.5955C237.881 92.0985 231.286 99.2621 222.48 102.665C225.556 101.931 228.858 101.604 231.925 100.929C243.011 98.4683 251.081 90.382 256.142 80.4999C258.472 75.9557 258.236 70.8658 261.666 67.1054C265.421 62.9879 272.074 64.9623 275.338 58.6024C278.778 51.9151 276.723 43.2831 271.819 37.5582Z" fill="black"/>
<path opacity="0.1" d="M218.017 104.034C211.983 105.364 205.083 105.334 200.67 109.69C195.195 115.097 196.493 124.047 195.824 131.736C194.655 145.18 185.288 157.215 173.17 162.682H174.064C191.942 162.127 208.169 146.649 209.732 128.66C210.41 120.961 209.113 112.012 214.587 106.614C215.842 105.406 217.317 104.456 218.931 103.816L218.017 104.034Z" fill="black"/>
</g>
<path d="M276.379 148.831C275.564 150.29 273.883 150.965 272.32 151.55C256.142 157.563 239.119 163.684 222.057 161.154C221.418 158.446 220.789 155.727 220.16 153.019C219.249 149.089 218.332 145.16 217.408 141.231C216.976 139.356 216.533 137.461 216.179 135.556C215.57 132.548 215.375 129.47 215.6 126.408C215.704 125.299 215.901 124.2 216.189 123.124C216.694 121.167 217.539 119.316 218.686 117.657C218.882 117.389 219.089 117.121 219.305 116.863C220.277 115.68 221.456 114.688 222.784 113.936C225.684 112.329 229.664 111.645 230.834 108.529C231.286 106.9 231.242 105.171 230.706 103.568C229.723 99.5994 227.944 95.8688 226.843 91.9398C225.448 86.9788 227.551 87.2864 232.298 86.0859C240.849 83.913 249.793 82.3553 258.57 84.1015C258.157 88.477 257.754 92.9617 258.845 97.2281C259.936 101.494 262.855 105.543 267.052 106.723C267.671 106.902 268.33 107.011 269.018 107.16C269.929 107.308 270.794 107.668 271.544 108.212C272.061 108.643 272.472 109.19 272.743 109.809C273.17 110.856 273.451 111.958 273.578 113.083C275.118 123.494 276.229 133.955 276.91 144.466V144.863C277.112 146.21 276.928 147.587 276.379 148.831V148.831Z" fill="#985555"/>
<path d="M193.092 131.736C189.416 137.382 188.178 144.248 187.057 150.915L179.922 192.686C178.939 198.401 178.064 204.681 180.964 209.692C181.947 211.389 183.323 212.857 184.04 214.653C184.582 216.46 184.938 218.318 185.101 220.199C186.772 229.774 196.1 236.233 205.456 238.555C208.838 239.398 212.789 239.725 215.452 237.453C218.401 234.983 218.401 230.28 216.661 226.886C214.921 223.493 211.747 221.092 208.67 218.82L198.478 211.24L204.375 165.599C204.808 162.285 206.341 157.989 209.663 158.356C212.69 158.684 215.02 163.139 217.713 161.7C218.557 161.123 219.151 160.243 219.374 159.239C220.553 155.499 220.229 151.471 219.895 147.552L218.676 133.403C218.273 128.809 219.443 125.366 219.993 121.05C220.632 116.02 217.31 117.548 213.211 118.629C205.339 120.733 197.643 124.731 193.092 131.736Z" fill="#985555"/>
<path d="M319.831 200.336C319.083 201.607 317.973 202.623 316.647 203.253C308.689 207.782 299.331 209.111 290.444 206.973C288.396 206.366 286.316 205.876 284.213 205.505C280.851 205.088 277.431 205.763 274.04 205.505C267.16 204.979 261.116 200.643 256.349 195.583C253.479 192.607 250.874 187.735 253.548 184.54C254.294 183.769 255.222 183.201 256.244 182.889C257.267 182.577 258.351 182.53 259.396 182.754C261.477 183.222 263.484 183.977 265.362 184.997C271.939 188.075 278.977 190.033 286.188 190.791C291.103 191.307 297.354 190.463 299.054 185.751C299.879 183.459 299.3 180.919 298.72 178.547C297.134 172.052 295.548 165.553 293.963 159.051C293.854 158.483 293.655 157.937 293.373 157.434C293.292 157.298 293.197 157.171 293.088 157.057C292.461 156.529 291.703 156.186 290.896 156.064C287.23 155.152 283.564 153.673 280.94 150.945C279.22 149.008 277.849 146.781 276.89 144.367C276.615 143.761 276.36 143.146 276.094 142.531C274.079 137.788 271.956 132.927 270.315 127.946C269.169 124.579 268.324 121.116 267.789 117.598C267.357 114.552 267.121 113.153 268.772 111.803C269.215 111.466 269.685 111.167 270.178 110.91C270.934 110.503 271.789 110.097 272.694 109.71L273.568 109.343C276.257 108.257 279.019 107.369 281.834 106.684C288.655 105.086 295.938 108.42 300.617 113.688C305.295 118.957 307.723 125.853 309.276 132.748C310.828 139.644 311.625 146.708 313.571 153.495C314.327 156.154 315.271 158.773 315.92 161.432C316.616 164.595 317.112 167.8 317.404 171.027C318.328 179.248 319.248 187.47 320.166 195.692C320.505 197.24 320.389 198.854 319.831 200.336Z" fill="#985555"/>
<path d="M218.912 196.764C220.877 209.424 215.226 221.876 209.761 233.475C212.857 235.757 216.641 236.888 220.337 237.87C245.071 244.434 270.784 246.387 296.213 243.635C296.823 239.348 297.393 234.804 295.653 230.855C294.572 228.405 292.705 226.41 291.515 224.009C289.55 220.04 289.746 215.427 289.962 211.021L291.722 173.487C279.525 167.812 265.381 173.13 251.965 173.894C245.016 174.291 237.979 173.438 231.129 174.678C227.571 175.323 216.386 177.099 214.705 180.8C213.024 184.5 218.312 192.736 218.912 196.764Z" fill="#985555"/>
<path opacity="0.05" d="M218.912 196.764C220.877 209.424 215.226 221.876 209.761 233.475C212.857 235.757 216.641 236.888 220.337 237.87C245.071 244.434 270.784 246.387 296.213 243.635C296.823 239.348 297.393 234.804 295.653 230.855C294.572 228.405 292.705 226.41 291.515 224.009C289.55 220.04 289.746 215.427 289.962 211.021L291.722 173.487C279.525 167.812 265.381 173.13 251.965 173.894C245.016 174.291 237.979 173.438 231.129 174.678C227.571 175.323 216.386 177.099 214.705 180.8C213.024 184.5 218.312 192.736 218.912 196.764Z" fill="black"/>
<path d="M251.228 233.098C238.009 230.319 225.015 225.726 211.521 225.408C210.843 225.339 210.16 225.47 209.555 225.785C208.896 226.335 208.457 227.107 208.317 227.958C206.921 232.82 205.673 237.718 204.572 242.652C200.916 259.053 199.117 277.17 207.157 291.894C207.078 287.112 210.056 282.637 214.037 279.988C218.017 277.339 222.784 276.267 227.502 275.831C232.22 275.394 237.262 275.573 241.655 277.527C244.725 278.936 247.374 281.135 249.336 283.904C251.298 286.673 252.503 289.915 252.83 293.303L299.27 294.821C299.542 294.901 299.829 294.912 300.106 294.851C300.383 294.791 300.64 294.662 300.855 294.476C301.07 294.289 301.235 294.052 301.336 293.785C301.437 293.518 301.47 293.229 301.432 292.946C303.145 277.907 303.082 262.716 301.246 247.693C300.735 243.496 300.666 237.671 295.987 236.094C290.405 234.209 281.579 236.411 275.613 236.153C267.416 235.806 259.261 234.784 251.228 233.098V233.098Z" fill="#3F3D56"/>
<path d="M293.383 159.597L293.235 180.432L246.255 182.01C237.635 182.308 228.947 182.605 220.543 184.54C218.126 185.096 215.737 185.79 213.359 186.475C210.882 177.317 208.444 167.723 209.093 158.386C209.272 155.867 209.707 153.374 210.39 150.945C211.884 145.706 214.686 140.765 216.179 135.586C216.781 133.569 217.112 131.48 217.162 129.375C217.051 127.272 216.721 125.187 216.179 123.154C215.748 121.486 215.543 119.767 215.57 118.044L219.295 116.883C219.403 117.33 219.492 117.766 219.57 118.223C219.728 119.165 219.855 120.128 219.944 121.09C220.154 123.475 220.22 125.871 220.14 128.264C220.013 133.046 219.374 138.374 222.332 142.154C226.175 147.006 233.566 146.252 239.601 145.041L255.405 141.856C260.398 140.864 265.971 139.455 268.576 135.04C269.687 132.896 270.273 130.515 270.286 128.095V127.619C270.521 122.349 270.001 117.072 268.743 111.952C268.359 110.345 267.888 108.757 267.357 107.199H268.939C269.851 107.347 270.715 107.707 271.465 108.251C271.982 108.682 272.393 109.229 272.664 109.849L273.539 109.482C277.026 123.872 282.773 137.605 290.562 150.161C291.564 151.598 292.358 153.172 292.921 154.834C293.155 155.736 293.287 156.661 293.314 157.592C293.393 158.178 293.383 158.882 293.383 159.597Z" fill="#BF1F3C"/>
<path d="M243.749 96.5336C259.49 96.5336 272.251 83.6513 272.251 67.7603C272.251 51.8692 259.49 38.987 243.749 38.987C228.007 38.987 215.246 51.8692 215.246 67.7603C215.246 83.6513 228.007 96.5336 243.749 96.5336Z" fill="#985555"/>
<path d="M193.092 131.736C189.416 137.382 188.178 144.248 187.057 150.915L179.922 192.686C178.939 198.401 175.981 209.226 178.88 214.236C179.863 215.933 179.114 214.968 180.354 216.221C181.829 217.709 181.337 217.094 182.32 218.701C187.234 227.135 196.1 236.233 205.457 238.555C208.838 239.398 212.789 239.725 215.452 237.453C218.401 234.983 218.401 230.28 216.661 226.886C214.921 223.493 211.747 221.092 208.67 218.82L198.478 211.24L204.375 165.599C204.769 162.315 197.643 124.731 193.092 131.736Z" fill="#985555"/>
<path d="M309.285 132.808C310.838 139.703 311.634 146.768 313.581 153.554C314.337 156.223 315.281 158.833 315.93 161.492C316.626 164.651 317.121 167.853 317.414 171.076L320.176 195.742C320.494 197.265 320.374 198.849 319.831 200.306C319.08 201.575 317.971 202.591 316.647 203.223C308.685 207.741 299.331 209.069 290.444 206.944C288.398 206.327 286.317 205.836 284.213 205.475C280.851 205.049 277.431 205.733 274.04 205.475C267.16 204.949 261.116 200.623 256.349 195.603C253.479 192.626 250.874 187.745 253.548 184.55C254.294 183.779 255.222 183.211 256.244 182.899C257.267 182.587 258.351 182.54 259.396 182.764C261.477 183.236 263.484 183.993 265.362 185.016C271.942 188.087 278.978 190.042 286.188 190.801C291.103 191.327 297.354 190.483 299.054 185.76C299.879 183.469 299.3 180.929 298.72 178.557L293.963 159.061C293.766 158.386 307.733 125.922 309.285 132.808Z" fill="#985555"/>
<path d="M226.106 76.6205C224.838 72.0267 223.059 66.2819 226.627 63.1665C227.909 62.1673 229.454 61.5704 231.07 61.45C239.08 60.4578 247.365 65.2203 255.032 62.6803C257.477 61.8737 259.639 60.3699 261.256 58.3504C262.874 56.3309 263.877 53.882 264.147 51.2993C264.416 48.7166 263.939 46.1105 262.773 43.7955C261.607 41.4804 259.803 39.5554 257.577 38.2528C254.226 36.2684 250.226 35.8814 246.363 35.5342C236.19 34.5916 225.585 33.7185 216.071 37.5185C206.557 41.3186 198.537 51.1015 200.503 61.2317C201.417 66.0636 204.375 70.2209 207.383 74.0706C209.693 76.9975 218.961 90.9377 222.686 90.7393C227.934 90.4416 226.932 79.607 226.106 76.6205Z" fill="#3F3D56"/>
<path opacity="0.1" d="M257.577 38.2528C257.01 37.9214 256.418 37.6329 255.808 37.3895C257.534 38.9704 258.819 40.981 259.533 43.2203C260.247 45.4596 260.367 47.849 259.879 50.1495C259.391 52.4499 258.314 54.5808 256.754 56.3289C255.195 58.077 253.208 59.3811 250.992 60.1105C243.326 62.6505 235.04 57.888 227.03 58.8802C225.415 59.0006 223.87 59.5975 222.588 60.5967C219.02 63.7122 220.799 69.4569 222.067 74.0507C222.892 77.0272 223.895 87.8718 218.666 88.1695H218.578C220.199 89.7669 221.664 90.8086 222.706 90.7491C227.934 90.4515 226.932 79.6168 226.106 76.6304C224.838 72.0366 223.059 66.2918 226.627 63.1764C227.909 62.1771 229.454 61.5803 231.07 61.4599C239.08 60.4677 247.366 65.2302 255.032 62.6902C257.477 61.8836 259.639 60.3798 261.256 58.3603C262.874 56.3408 263.877 53.8919 264.147 51.3092C264.416 48.7266 263.939 46.1204 262.773 43.8053C261.607 41.4903 259.803 39.5653 257.577 38.2627V38.2528Z" fill="black"/>
</g>
<defs>
<clipPath id="clip0">
<rect width="493" height="545" fill="white"/>
</clipPath>
</defs>
</svg>
