<svg width="160" height="154" viewBox="0 0 160 154" fill="none" xmlns="http://www.w3.org/2000/svg">
<path d="M116.878 0.283884L116.496 0.282952C101.282 0.245881 87.8077 8.26355 80.0393 20.1241C72.3288 8.22583 58.8936 0.142594 43.6798 0.105523L43.2974 0.104592C31.8796 0.185576 20.9551 4.76931 12.8979 12.8597C4.84076 20.9501 0.30202 31.8933 0.267999 43.3113C0.23345 57.4901 6.39434 77.6238 18.4628 94.2079C41.4565 125.808 79.7143 153.5 79.7143 153.5C79.7143 153.5 118.107 126 141.249 94.5071C153.403 77.982 159.657 57.8786 159.691 43.6998C159.713 32.2826 155.228 21.3182 147.212 13.1888C139.195 5.05935 128.295 0.421843 116.878 0.283884ZM111.172 96.8607C109.44 96.8499 107.751 96.3154 106.327 95.3274C104.904 94.3395 103.813 92.9442 103.196 91.3247L94.1008 91.3026C93.5018 91.2974 92.9195 91.1053 92.435 90.7531C91.9505 90.4009 91.588 89.9063 91.3983 89.3382L88.6248 80.9138L79.7088 111.784C79.5352 112.378 79.1735 112.9 78.678 113.271C78.1825 113.642 77.5799 113.843 76.9608 113.842L76.7824 113.842C76.1365 113.809 75.5214 113.555 75.0399 113.124C74.5585 112.692 74.2397 112.108 74.137 111.469L65.1596 56.649L58.422 89.059C58.2678 89.6746 57.9119 90.2208 57.411 90.6105C56.9101 91.0002 56.2931 91.2108 55.6585 91.2089L42.8461 91.1777C42.4619 91.193 42.0787 91.1304 41.7194 90.9938C41.3601 90.8571 41.0321 90.6492 40.7552 90.3825C40.4784 90.1158 40.2583 89.7959 40.1083 89.4419C39.9583 89.088 39.8815 88.7074 39.8824 88.3229C39.8834 87.9385 39.9621 87.5583 40.1138 87.2051C40.2655 86.8518 40.4871 86.533 40.7653 86.2676C41.0434 86.0023 41.3724 85.796 41.7324 85.6611C42.0923 85.5262 42.4759 85.4655 42.8599 85.4827L53.429 85.5085L62.9674 41.9346C63.1238 41.2904 63.4991 40.7205 64.0292 40.3224C64.5592 39.9243 65.2111 39.7227 65.8733 39.752C66.5356 39.7813 67.1671 40.0397 67.6599 40.4831C68.1527 40.9265 68.4762 41.5273 68.5751 42.1828L77.7436 98.1049L85.7339 70.4855C85.9003 69.9038 86.2503 69.3915 86.7318 69.0251C87.2133 68.6587 87.8004 68.4579 88.4054 68.4526L88.4615 68.4527C89.0607 68.4544 89.644 68.6452 90.1284 68.9979C90.6128 69.3507 90.9734 69.8473 91.1589 70.4171L96.1744 85.6279L103.098 85.6448C103.594 84.1504 104.493 82.8221 105.696 81.8065C106.899 80.7909 108.36 80.1274 109.916 79.8893C111.473 79.6513 113.065 79.8479 114.516 80.4574C115.968 81.067 117.223 82.0657 118.143 83.3436C119.063 84.6214 119.612 86.1285 119.729 87.6986C119.847 89.2687 119.528 90.8408 118.809 92.2412C118.089 93.6417 116.997 94.8161 115.652 95.6349C114.307 96.4537 112.762 96.885 111.188 96.8811L111.172 96.8607Z" fill="white"/>
</svg>
